<mxfile host="drawio-plugin" modified="2022-02-02T08:20:14.483Z" agent="5.0 (X11; Linux x86_64) AppleWebKit/537.36 (KHTML, like Gecko) Chrome/89.0.4389.114 Safari/537.36" etag="3Rm_1fodDkA-rZy2xLIt" version="15.5.4" type="embed" pages="2"><diagram id="LpQnhjipQJrDBKZ1OuSx" name="v.1"><mxGraphModel dx="1728" dy="1487" grid="1" gridSize="10" guides="1" tooltips="1" connect="1" arrows="1" fold="1" page="1" pageScale="1" pageWidth="850" pageHeight="1100" math="0" shadow="0"><root><mxCell id="OxAIse8aEnZKSFSd6LNi-0"/><mxCell id="OxAIse8aEnZKSFSd6LNi-1" parent="OxAIse8aEnZKSFSd6LNi-0"/><mxCell id="NQuzW8FhiEgYR6EOqx6p-0" value="image" style="shape=table;startSize=30;container=1;collapsible=1;childLayout=tableLayout;fixedRows=1;rowLines=0;fontStyle=1;align=center;resizeLast=1;fillColor=#ffe6cc;strokeColor=#d79b00;" parent="OxAIse8aEnZKSFSd6LNi-1" vertex="1"><mxGeometry x="470" y="-320" width="180" height="130" as="geometry"/></mxCell><mxCell id="NQuzW8FhiEgYR6EOqx6p-1" value="" style="shape=partialRectangle;collapsible=0;dropTarget=0;pointerEvents=0;fillColor=none;top=0;left=0;bottom=1;right=0;points=[[0,0.5],[1,0.5]];portConstraint=eastwest;" parent="NQuzW8FhiEgYR6EOqx6p-0" vertex="1"><mxGeometry y="30" width="180" height="70" as="geometry"/></mxCell><mxCell id="NQuzW8FhiEgYR6EOqx6p-2" value="PK" style="shape=partialRectangle;connectable=0;fillColor=none;top=0;left=0;bottom=0;right=0;fontStyle=1;overflow=hidden;" parent="NQuzW8FhiEgYR6EOqx6p-1" vertex="1"><mxGeometry width="30" height="70" as="geometry"><mxRectangle width="30" height="70" as="alternateBounds"/></mxGeometry></mxCell><mxCell id="NQuzW8FhiEgYR6EOqx6p-3" value="image_id" style="shape=partialRectangle;connectable=0;fillColor=none;top=0;left=0;bottom=0;right=0;align=left;spacingLeft=6;fontStyle=5;overflow=hidden;" parent="NQuzW8FhiEgYR6EOqx6p-1" vertex="1"><mxGeometry x="30" width="150" height="70" as="geometry"><mxRectangle width="150" height="70" as="alternateBounds"/></mxGeometry></mxCell><mxCell id="NQuzW8FhiEgYR6EOqx6p-7" value="" style="shape=partialRectangle;collapsible=0;dropTarget=0;pointerEvents=0;fillColor=none;top=0;left=0;bottom=0;right=0;points=[[0,0.5],[1,0.5]];portConstraint=eastwest;" parent="NQuzW8FhiEgYR6EOqx6p-0" vertex="1"><mxGeometry y="100" width="180" height="30" as="geometry"/></mxCell><mxCell id="NQuzW8FhiEgYR6EOqx6p-8" value="" style="shape=partialRectangle;connectable=0;fillColor=none;top=0;left=0;bottom=0;right=0;editable=1;overflow=hidden;" parent="NQuzW8FhiEgYR6EOqx6p-7" vertex="1"><mxGeometry width="30" height="30" as="geometry"><mxRectangle width="30" height="30" as="alternateBounds"/></mxGeometry></mxCell><mxCell id="NQuzW8FhiEgYR6EOqx6p-9" value="image_name" style="shape=partialRectangle;connectable=0;fillColor=none;top=0;left=0;bottom=0;right=0;align=left;spacingLeft=6;overflow=hidden;" parent="NQuzW8FhiEgYR6EOqx6p-7" vertex="1"><mxGeometry x="30" width="150" height="30" as="geometry"><mxRectangle width="150" height="30" as="alternateBounds"/></mxGeometry></mxCell><mxCell id="JJc9EbKDyr_XPul_fWv1-0" value="equipment" style="shape=table;startSize=30;container=1;collapsible=1;childLayout=tableLayout;fixedRows=1;rowLines=0;fontStyle=1;align=center;resizeLast=1;fillColor=#ffe6cc;strokeColor=#d79b00;" parent="OxAIse8aEnZKSFSd6LNi-1" vertex="1"><mxGeometry x="210" y="-80" width="180" height="410" as="geometry"/></mxCell><mxCell id="321WCU5JT88BYbTSTymU-75" value="" style="shape=partialRectangle;collapsible=0;dropTarget=0;pointerEvents=0;fillColor=none;top=0;left=0;bottom=0;right=0;points=[[0,0.5],[1,0.5]];portConstraint=eastwest;" parent="JJc9EbKDyr_XPul_fWv1-0" vertex="1"><mxGeometry y="30" width="180" height="30" as="geometry"/></mxCell><mxCell id="321WCU5JT88BYbTSTymU-76" value="PK,&#10;FK&#10;" style="shape=partialRectangle;connectable=0;fillColor=none;top=0;left=0;bottom=0;right=0;editable=1;overflow=hidden;fontStyle=5" parent="321WCU5JT88BYbTSTymU-75" vertex="1"><mxGeometry width="30" height="30" as="geometry"><mxRectangle width="30" height="30" as="alternateBounds"/></mxGeometry></mxCell><mxCell id="321WCU5JT88BYbTSTymU-77" value="equipment_id" style="shape=partialRectangle;connectable=0;fillColor=none;top=0;left=0;bottom=0;right=0;align=left;spacingLeft=6;overflow=hidden;fontStyle=5" parent="321WCU5JT88BYbTSTymU-75" vertex="1"><mxGeometry x="30" width="150" height="30" as="geometry"><mxRectangle width="150" height="30" as="alternateBounds"/></mxGeometry></mxCell><mxCell id="321WCU5JT88BYbTSTymU-42" value="" style="shape=partialRectangle;collapsible=0;dropTarget=0;pointerEvents=0;fillColor=none;top=0;left=0;bottom=0;right=0;points=[[0,0.5],[1,0.5]];portConstraint=eastwest;" parent="JJc9EbKDyr_XPul_fWv1-0" vertex="1"><mxGeometry y="60" width="180" height="20" as="geometry"/></mxCell><mxCell id="321WCU5JT88BYbTSTymU-43" value="" style="shape=partialRectangle;connectable=0;fillColor=none;top=0;left=0;bottom=0;right=0;editable=1;overflow=hidden;" parent="321WCU5JT88BYbTSTymU-42" vertex="1"><mxGeometry width="30" height="20" as="geometry"><mxRectangle width="30" height="20" as="alternateBounds"/></mxGeometry></mxCell><mxCell id="321WCU5JT88BYbTSTymU-44" value="product_group_name" style="shape=partialRectangle;connectable=0;fillColor=none;top=0;left=0;bottom=0;right=0;align=left;spacingLeft=6;overflow=hidden;" parent="321WCU5JT88BYbTSTymU-42" vertex="1"><mxGeometry x="30" width="150" height="20" as="geometry"><mxRectangle width="150" height="20" as="alternateBounds"/></mxGeometry></mxCell><mxCell id="JJc9EbKDyr_XPul_fWv1-7" value="" style="shape=partialRectangle;collapsible=0;dropTarget=0;pointerEvents=0;fillColor=none;top=0;left=0;bottom=0;right=0;points=[[0,0.5],[1,0.5]];portConstraint=eastwest;" parent="JJc9EbKDyr_XPul_fWv1-0" vertex="1"><mxGeometry y="80" width="180" height="30" as="geometry"/></mxCell><mxCell id="JJc9EbKDyr_XPul_fWv1-8" value="FK" style="shape=partialRectangle;connectable=0;fillColor=none;top=0;left=0;bottom=0;right=0;fontStyle=0;overflow=hidden;" parent="JJc9EbKDyr_XPul_fWv1-7" vertex="1"><mxGeometry width="30" height="30" as="geometry"><mxRectangle width="30" height="30" as="alternateBounds"/></mxGeometry></mxCell><mxCell id="JJc9EbKDyr_XPul_fWv1-9" value="image_id" style="shape=partialRectangle;connectable=0;fillColor=none;top=0;left=0;bottom=0;right=0;align=left;spacingLeft=6;fontStyle=0;overflow=hidden;" parent="JJc9EbKDyr_XPul_fWv1-7" vertex="1"><mxGeometry x="30" width="150" height="30" as="geometry"><mxRectangle width="150" height="30" as="alternateBounds"/></mxGeometry></mxCell><mxCell id="JJc9EbKDyr_XPul_fWv1-10" value="" style="shape=partialRectangle;collapsible=0;dropTarget=0;pointerEvents=0;fillColor=none;top=0;left=0;bottom=0;right=0;points=[[0,0.5],[1,0.5]];portConstraint=eastwest;" parent="JJc9EbKDyr_XPul_fWv1-0" vertex="1"><mxGeometry y="110" width="180" height="30" as="geometry"/></mxCell><mxCell id="JJc9EbKDyr_XPul_fWv1-11" value="" style="shape=partialRectangle;connectable=0;fillColor=none;top=0;left=0;bottom=0;right=0;editable=1;overflow=hidden;" parent="JJc9EbKDyr_XPul_fWv1-10" vertex="1"><mxGeometry width="30" height="30" as="geometry"><mxRectangle width="30" height="30" as="alternateBounds"/></mxGeometry></mxCell><mxCell id="JJc9EbKDyr_XPul_fWv1-12" value="maker" style="shape=partialRectangle;connectable=0;fillColor=none;top=0;left=0;bottom=0;right=0;align=left;spacingLeft=6;overflow=hidden;" parent="JJc9EbKDyr_XPul_fWv1-10" vertex="1"><mxGeometry x="30" width="150" height="30" as="geometry"><mxRectangle width="150" height="30" as="alternateBounds"/></mxGeometry></mxCell><mxCell id="JJc9EbKDyr_XPul_fWv1-13" value="" style="shape=partialRectangle;collapsible=0;dropTarget=0;pointerEvents=0;fillColor=none;top=0;left=0;bottom=0;right=0;points=[[0,0.5],[1,0.5]];portConstraint=eastwest;" parent="JJc9EbKDyr_XPul_fWv1-0" vertex="1"><mxGeometry y="140" width="180" height="30" as="geometry"/></mxCell><mxCell id="JJc9EbKDyr_XPul_fWv1-14" value="" style="shape=partialRectangle;connectable=0;fillColor=none;top=0;left=0;bottom=0;right=0;editable=1;overflow=hidden;" parent="JJc9EbKDyr_XPul_fWv1-13" vertex="1"><mxGeometry width="30" height="30" as="geometry"><mxRectangle width="30" height="30" as="alternateBounds"/></mxGeometry></mxCell><mxCell id="JJc9EbKDyr_XPul_fWv1-15" value="boot_size" style="shape=partialRectangle;connectable=0;fillColor=none;top=0;left=0;bottom=0;right=0;align=left;spacingLeft=6;overflow=hidden;" parent="JJc9EbKDyr_XPul_fWv1-13" vertex="1"><mxGeometry x="30" width="150" height="30" as="geometry"><mxRectangle width="150" height="30" as="alternateBounds"/></mxGeometry></mxCell><mxCell id="aabEmhaGwQOIHcj2dso4-1" value="" style="shape=partialRectangle;collapsible=0;dropTarget=0;pointerEvents=0;fillColor=none;top=0;left=0;bottom=0;right=0;points=[[0,0.5],[1,0.5]];portConstraint=eastwest;" parent="JJc9EbKDyr_XPul_fWv1-0" vertex="1"><mxGeometry y="170" width="180" height="30" as="geometry"/></mxCell><mxCell id="aabEmhaGwQOIHcj2dso4-2" value="" style="shape=partialRectangle;connectable=0;fillColor=none;top=0;left=0;bottom=0;right=0;editable=1;overflow=hidden;" parent="aabEmhaGwQOIHcj2dso4-1" vertex="1"><mxGeometry width="30" height="30" as="geometry"><mxRectangle width="30" height="30" as="alternateBounds"/></mxGeometry></mxCell><mxCell id="aabEmhaGwQOIHcj2dso4-3" value="lacing_system" style="shape=partialRectangle;connectable=0;fillColor=none;top=0;left=0;bottom=0;right=0;align=left;spacingLeft=6;overflow=hidden;" parent="aabEmhaGwQOIHcj2dso4-1" vertex="1"><mxGeometry x="30" width="150" height="30" as="geometry"><mxRectangle width="150" height="30" as="alternateBounds"/></mxGeometry></mxCell><mxCell id="JJc9EbKDyr_XPul_fWv1-16" value="" style="shape=partialRectangle;collapsible=0;dropTarget=0;pointerEvents=0;fillColor=none;top=0;left=0;bottom=0;right=0;points=[[0,0.5],[1,0.5]];portConstraint=eastwest;" parent="JJc9EbKDyr_XPul_fWv1-0" vertex="1"><mxGeometry y="200" width="180" height="30" as="geometry"/></mxCell><mxCell id="JJc9EbKDyr_XPul_fWv1-17" value="" style="shape=partialRectangle;connectable=0;fillColor=none;top=0;left=0;bottom=0;right=0;editable=1;overflow=hidden;" parent="JJc9EbKDyr_XPul_fWv1-16" vertex="1"><mxGeometry width="30" height="30" as="geometry"><mxRectangle width="30" height="30" as="alternateBounds"/></mxGeometry></mxCell><mxCell id="JJc9EbKDyr_XPul_fWv1-18" value="gender" style="shape=partialRectangle;connectable=0;fillColor=none;top=0;left=0;bottom=0;right=0;align=left;spacingLeft=6;overflow=hidden;" parent="JJc9EbKDyr_XPul_fWv1-16" vertex="1"><mxGeometry x="30" width="150" height="30" as="geometry"><mxRectangle width="150" height="30" as="alternateBounds"/></mxGeometry></mxCell><mxCell id="0Eo2dwkOJkQAOvrDeunt-62" value="" style="shape=partialRectangle;collapsible=0;dropTarget=0;pointerEvents=0;fillColor=none;top=0;left=0;bottom=0;right=0;points=[[0,0.5],[1,0.5]];portConstraint=eastwest;" parent="JJc9EbKDyr_XPul_fWv1-0" vertex="1"><mxGeometry y="230" width="180" height="30" as="geometry"/></mxCell><mxCell id="0Eo2dwkOJkQAOvrDeunt-63" value="" style="shape=partialRectangle;connectable=0;fillColor=none;top=0;left=0;bottom=0;right=0;editable=1;overflow=hidden;" parent="0Eo2dwkOJkQAOvrDeunt-62" vertex="1"><mxGeometry width="30" height="30" as="geometry"><mxRectangle width="30" height="30" as="alternateBounds"/></mxGeometry></mxCell><mxCell id="0Eo2dwkOJkQAOvrDeunt-64" value="membrane" style="shape=partialRectangle;connectable=0;fillColor=none;top=0;left=0;bottom=0;right=0;align=left;spacingLeft=6;overflow=hidden;" parent="0Eo2dwkOJkQAOvrDeunt-62" vertex="1"><mxGeometry x="30" width="150" height="30" as="geometry"><mxRectangle width="150" height="30" as="alternateBounds"/></mxGeometry></mxCell><mxCell id="JJc9EbKDyr_XPul_fWv1-19" value="" style="shape=partialRectangle;collapsible=0;dropTarget=0;pointerEvents=0;fillColor=none;top=0;left=0;bottom=0;right=0;points=[[0,0.5],[1,0.5]];portConstraint=eastwest;" parent="JJc9EbKDyr_XPul_fWv1-0" vertex="1"><mxGeometry y="260" width="180" height="30" as="geometry"/></mxCell><mxCell id="JJc9EbKDyr_XPul_fWv1-20" value="" style="shape=partialRectangle;connectable=0;fillColor=none;top=0;left=0;bottom=0;right=0;editable=1;overflow=hidden;" parent="JJc9EbKDyr_XPul_fWv1-19" vertex="1"><mxGeometry width="30" height="30" as="geometry"><mxRectangle width="30" height="30" as="alternateBounds"/></mxGeometry></mxCell><mxCell id="JJc9EbKDyr_XPul_fWv1-21" value="riding_level" style="shape=partialRectangle;connectable=0;fillColor=none;top=0;left=0;bottom=0;right=0;align=left;spacingLeft=6;overflow=hidden;" parent="JJc9EbKDyr_XPul_fWv1-19" vertex="1"><mxGeometry x="30" width="150" height="30" as="geometry"><mxRectangle width="150" height="30" as="alternateBounds"/></mxGeometry></mxCell><mxCell id="i-eucpa_d0wFltXAcSXL-1" value="" style="shape=partialRectangle;collapsible=0;dropTarget=0;pointerEvents=0;fillColor=none;top=0;left=0;bottom=0;right=0;points=[[0,0.5],[1,0.5]];portConstraint=eastwest;" parent="JJc9EbKDyr_XPul_fWv1-0" vertex="1"><mxGeometry y="290" width="180" height="30" as="geometry"/></mxCell><mxCell id="i-eucpa_d0wFltXAcSXL-2" value="FK" style="shape=partialRectangle;connectable=0;fillColor=none;top=0;left=0;bottom=0;right=0;editable=1;overflow=hidden;" parent="i-eucpa_d0wFltXAcSXL-1" vertex="1"><mxGeometry width="30" height="30" as="geometry"><mxRectangle width="30" height="30" as="alternateBounds"/></mxGeometry></mxCell><mxCell id="i-eucpa_d0wFltXAcSXL-3" value="equipment_size_id" style="shape=partialRectangle;connectable=0;fillColor=none;top=0;left=0;bottom=0;right=0;align=left;spacingLeft=6;overflow=hidden;" parent="i-eucpa_d0wFltXAcSXL-1" vertex="1"><mxGeometry x="30" width="150" height="30" as="geometry"><mxRectangle width="150" height="30" as="alternateBounds"/></mxGeometry></mxCell><mxCell id="66BPPpiaXDUMIn8MOPhY-1" value="" style="shape=partialRectangle;collapsible=0;dropTarget=0;pointerEvents=0;fillColor=none;top=0;left=0;bottom=0;right=0;points=[[0,0.5],[1,0.5]];portConstraint=eastwest;" parent="JJc9EbKDyr_XPul_fWv1-0" vertex="1"><mxGeometry y="320" width="180" height="30" as="geometry"/></mxCell><mxCell id="66BPPpiaXDUMIn8MOPhY-2" value="" style="shape=partialRectangle;connectable=0;fillColor=none;top=0;left=0;bottom=0;right=0;editable=1;overflow=hidden;" parent="66BPPpiaXDUMIn8MOPhY-1" vertex="1"><mxGeometry width="30" height="30" as="geometry"><mxRectangle width="30" height="30" as="alternateBounds"/></mxGeometry></mxCell><mxCell id="66BPPpiaXDUMIn8MOPhY-3" value="hardness_level" style="shape=partialRectangle;connectable=0;fillColor=none;top=0;left=0;bottom=0;right=0;align=left;spacingLeft=6;overflow=hidden;" parent="66BPPpiaXDUMIn8MOPhY-1" vertex="1"><mxGeometry x="30" width="150" height="30" as="geometry"><mxRectangle width="150" height="30" as="alternateBounds"/></mxGeometry></mxCell><mxCell id="JJc9EbKDyr_XPul_fWv1-22" value="" style="shape=partialRectangle;collapsible=0;dropTarget=0;pointerEvents=0;fillColor=none;top=0;left=0;bottom=0;right=0;points=[[0,0.5],[1,0.5]];portConstraint=eastwest;" parent="JJc9EbKDyr_XPul_fWv1-0" vertex="1"><mxGeometry y="350" width="180" height="30" as="geometry"/></mxCell><mxCell id="JJc9EbKDyr_XPul_fWv1-23" value="" style="shape=partialRectangle;connectable=0;fillColor=none;top=0;left=0;bottom=0;right=0;editable=1;overflow=hidden;" parent="JJc9EbKDyr_XPul_fWv1-22" vertex="1"><mxGeometry width="30" height="30" as="geometry"><mxRectangle width="30" height="30" as="alternateBounds"/></mxGeometry></mxCell><mxCell id="JJc9EbKDyr_XPul_fWv1-24" value="available" style="shape=partialRectangle;connectable=0;fillColor=none;top=0;left=0;bottom=0;right=0;align=left;spacingLeft=6;overflow=hidden;" parent="JJc9EbKDyr_XPul_fWv1-22" vertex="1"><mxGeometry x="30" width="150" height="30" as="geometry"><mxRectangle width="150" height="30" as="alternateBounds"/></mxGeometry></mxCell><mxCell id="JJc9EbKDyr_XPul_fWv1-25" value="" style="shape=partialRectangle;collapsible=0;dropTarget=0;pointerEvents=0;fillColor=none;top=0;left=0;bottom=0;right=0;points=[[0,0.5],[1,0.5]];portConstraint=eastwest;" parent="JJc9EbKDyr_XPul_fWv1-0" vertex="1"><mxGeometry y="380" width="180" height="30" as="geometry"/></mxCell><mxCell id="JJc9EbKDyr_XPul_fWv1-26" value="" style="shape=partialRectangle;connectable=0;fillColor=none;top=0;left=0;bottom=0;right=0;editable=1;overflow=hidden;" parent="JJc9EbKDyr_XPul_fWv1-25" vertex="1"><mxGeometry width="30" height="30" as="geometry"><mxRectangle width="30" height="30" as="alternateBounds"/></mxGeometry></mxCell><mxCell id="JJc9EbKDyr_XPul_fWv1-27" value="cost" style="shape=partialRectangle;connectable=0;fillColor=none;top=0;left=0;bottom=0;right=0;align=left;spacingLeft=6;overflow=hidden;" parent="JJc9EbKDyr_XPul_fWv1-25" vertex="1"><mxGeometry x="30" width="150" height="30" as="geometry"><mxRectangle width="150" height="30" as="alternateBounds"/></mxGeometry></mxCell><mxCell id="mm-_4hHIgv-tI4UmnAtm-0" value="equipment_size" style="shape=table;startSize=30;container=1;collapsible=1;childLayout=tableLayout;fixedRows=1;rowLines=0;fontStyle=1;align=center;resizeLast=1;fillColor=#ffe6cc;strokeColor=#d79b00;" parent="OxAIse8aEnZKSFSd6LNi-1" vertex="1"><mxGeometry x="480" y="-60" width="180" height="180" as="geometry"/></mxCell><mxCell id="mm-_4hHIgv-tI4UmnAtm-1" value="" style="shape=partialRectangle;collapsible=0;dropTarget=0;pointerEvents=0;fillColor=none;top=0;left=0;bottom=1;right=0;points=[[0,0.5],[1,0.5]];portConstraint=eastwest;" parent="mm-_4hHIgv-tI4UmnAtm-0" vertex="1"><mxGeometry y="30" width="180" height="30" as="geometry"/></mxCell><mxCell id="mm-_4hHIgv-tI4UmnAtm-2" value="PK" style="shape=partialRectangle;connectable=0;fillColor=none;top=0;left=0;bottom=0;right=0;fontStyle=1;overflow=hidden;" parent="mm-_4hHIgv-tI4UmnAtm-1" vertex="1"><mxGeometry width="30" height="30" as="geometry"><mxRectangle width="30" height="30" as="alternateBounds"/></mxGeometry></mxCell><mxCell id="mm-_4hHIgv-tI4UmnAtm-3" value="equipment_size_id" style="shape=partialRectangle;connectable=0;fillColor=none;top=0;left=0;bottom=0;right=0;align=left;spacingLeft=6;fontStyle=5;overflow=hidden;" parent="mm-_4hHIgv-tI4UmnAtm-1" vertex="1"><mxGeometry x="30" width="150" height="30" as="geometry"><mxRectangle width="150" height="30" as="alternateBounds"/></mxGeometry></mxCell><mxCell id="mm-_4hHIgv-tI4UmnAtm-7" value="" style="shape=partialRectangle;collapsible=0;dropTarget=0;pointerEvents=0;fillColor=none;top=0;left=0;bottom=0;right=0;points=[[0,0.5],[1,0.5]];portConstraint=eastwest;" parent="mm-_4hHIgv-tI4UmnAtm-0" vertex="1"><mxGeometry y="60" width="180" height="30" as="geometry"/></mxCell><mxCell id="mm-_4hHIgv-tI4UmnAtm-8" value="" style="shape=partialRectangle;connectable=0;fillColor=none;top=0;left=0;bottom=0;right=0;editable=1;overflow=hidden;" parent="mm-_4hHIgv-tI4UmnAtm-7" vertex="1"><mxGeometry width="30" height="30" as="geometry"><mxRectangle width="30" height="30" as="alternateBounds"/></mxGeometry></mxCell><mxCell id="mm-_4hHIgv-tI4UmnAtm-9" value="user_min_height" style="shape=partialRectangle;connectable=0;fillColor=none;top=0;left=0;bottom=0;right=0;align=left;spacingLeft=6;overflow=hidden;" parent="mm-_4hHIgv-tI4UmnAtm-7" vertex="1"><mxGeometry x="30" width="150" height="30" as="geometry"><mxRectangle width="150" height="30" as="alternateBounds"/></mxGeometry></mxCell><mxCell id="mm-_4hHIgv-tI4UmnAtm-10" value="" style="shape=partialRectangle;collapsible=0;dropTarget=0;pointerEvents=0;fillColor=none;top=0;left=0;bottom=0;right=0;points=[[0,0.5],[1,0.5]];portConstraint=eastwest;" parent="mm-_4hHIgv-tI4UmnAtm-0" vertex="1"><mxGeometry y="90" width="180" height="30" as="geometry"/></mxCell><mxCell id="mm-_4hHIgv-tI4UmnAtm-11" value="" style="shape=partialRectangle;connectable=0;fillColor=none;top=0;left=0;bottom=0;right=0;editable=1;overflow=hidden;" parent="mm-_4hHIgv-tI4UmnAtm-10" vertex="1"><mxGeometry width="30" height="30" as="geometry"><mxRectangle width="30" height="30" as="alternateBounds"/></mxGeometry></mxCell><mxCell id="mm-_4hHIgv-tI4UmnAtm-12" value="user_max_height" style="shape=partialRectangle;connectable=0;fillColor=none;top=0;left=0;bottom=0;right=0;align=left;spacingLeft=6;overflow=hidden;" parent="mm-_4hHIgv-tI4UmnAtm-10" vertex="1"><mxGeometry x="30" width="150" height="30" as="geometry"><mxRectangle width="150" height="30" as="alternateBounds"/></mxGeometry></mxCell><mxCell id="mm-_4hHIgv-tI4UmnAtm-13" value="" style="shape=partialRectangle;collapsible=0;dropTarget=0;pointerEvents=0;fillColor=none;top=0;left=0;bottom=0;right=0;points=[[0,0.5],[1,0.5]];portConstraint=eastwest;" parent="mm-_4hHIgv-tI4UmnAtm-0" vertex="1"><mxGeometry y="120" width="180" height="30" as="geometry"/></mxCell><mxCell id="mm-_4hHIgv-tI4UmnAtm-14" value="" style="shape=partialRectangle;connectable=0;fillColor=none;top=0;left=0;bottom=0;right=0;editable=1;overflow=hidden;" parent="mm-_4hHIgv-tI4UmnAtm-13" vertex="1"><mxGeometry width="30" height="30" as="geometry"><mxRectangle width="30" height="30" as="alternateBounds"/></mxGeometry></mxCell><mxCell id="mm-_4hHIgv-tI4UmnAtm-15" value="user_min_weight" style="shape=partialRectangle;connectable=0;fillColor=none;top=0;left=0;bottom=0;right=0;align=left;spacingLeft=6;overflow=hidden;" parent="mm-_4hHIgv-tI4UmnAtm-13" vertex="1"><mxGeometry x="30" width="150" height="30" as="geometry"><mxRectangle width="150" height="30" as="alternateBounds"/></mxGeometry></mxCell><mxCell id="mm-_4hHIgv-tI4UmnAtm-16" value="" style="shape=partialRectangle;collapsible=0;dropTarget=0;pointerEvents=0;fillColor=none;top=0;left=0;bottom=0;right=0;points=[[0,0.5],[1,0.5]];portConstraint=eastwest;" parent="mm-_4hHIgv-tI4UmnAtm-0" vertex="1"><mxGeometry y="150" width="180" height="30" as="geometry"/></mxCell><mxCell id="mm-_4hHIgv-tI4UmnAtm-17" value="" style="shape=partialRectangle;connectable=0;fillColor=none;top=0;left=0;bottom=0;right=0;editable=1;overflow=hidden;" parent="mm-_4hHIgv-tI4UmnAtm-16" vertex="1"><mxGeometry width="30" height="30" as="geometry"><mxRectangle width="30" height="30" as="alternateBounds"/></mxGeometry></mxCell><mxCell id="mm-_4hHIgv-tI4UmnAtm-18" value="user_max_weight" style="shape=partialRectangle;connectable=0;fillColor=none;top=0;left=0;bottom=0;right=0;align=left;spacingLeft=6;overflow=hidden;" parent="mm-_4hHIgv-tI4UmnAtm-16" vertex="1"><mxGeometry x="30" width="150" height="30" as="geometry"><mxRectangle width="150" height="30" as="alternateBounds"/></mxGeometry></mxCell><mxCell id="mm-_4hHIgv-tI4UmnAtm-19" value="" style="edgeStyle=entityRelationEdgeStyle;fontSize=12;html=1;endArrow=ERzeroToMany;startArrow=ERmandOne;rounded=0;exitX=1;exitY=0.5;exitDx=0;exitDy=0;entryX=-0.018;entryY=0.276;entryDx=0;entryDy=0;entryPerimeter=0;" parent="OxAIse8aEnZKSFSd6LNi-1" source="JJc9EbKDyr_XPul_fWv1-7" target="NQuzW8FhiEgYR6EOqx6p-1" edge="1"><mxGeometry width="100" height="100" relative="1" as="geometry"><mxPoint x="660" y="-80" as="sourcePoint"/><mxPoint x="760" y="-180" as="targetPoint"/></mxGeometry></mxCell><mxCell id="XZqMz4ogdTUtQZgYRdFt-5" value="" style="edgeStyle=entityRelationEdgeStyle;fontSize=12;html=1;endArrow=ERoneToMany;startArrow=ERmandOne;rounded=0;entryX=0;entryY=0.5;entryDx=0;entryDy=0;exitX=1;exitY=0.5;exitDx=0;exitDy=0;" parent="OxAIse8aEnZKSFSd6LNi-1" source="i-eucpa_d0wFltXAcSXL-1" target="mm-_4hHIgv-tI4UmnAtm-1" edge="1"><mxGeometry width="100" height="100" relative="1" as="geometry"><mxPoint x="1030" y="-50" as="sourcePoint"/><mxPoint x="1060" y="40" as="targetPoint"/></mxGeometry></mxCell><mxCell id="eae7AUCRyiLIYo3gLx5g-0" value="user" style="shape=table;startSize=30;container=1;collapsible=1;childLayout=tableLayout;fixedRows=1;rowLines=0;fontStyle=1;align=center;resizeLast=1;rounded=0;sketch=0;flipH=1;flipV=0;perimeterSpacing=0;shadow=0;swimlaneLine=1;fontSize=16;fillColor=#ffe6cc;strokeColor=#d79b00;" parent="OxAIse8aEnZKSFSd6LNi-1" vertex="1"><mxGeometry x="40" y="470" width="300" height="370" as="geometry"/></mxCell><mxCell id="eae7AUCRyiLIYo3gLx5g-1" value="" style="shape=partialRectangle;collapsible=0;dropTarget=0;pointerEvents=0;fillColor=none;top=0;left=0;bottom=0;right=0;points=[[0,0.5],[1,0.5]];portConstraint=eastwest;rounded=0;sketch=0;fontColor=#5C5C5C;strokeColor=#006658;" parent="eae7AUCRyiLIYo3gLx5g-0" vertex="1"><mxGeometry y="30" width="300" height="30" as="geometry"/></mxCell><mxCell id="eae7AUCRyiLIYo3gLx5g-2" value="PK, FK" style="shape=partialRectangle;connectable=0;fillColor=none;top=0;left=0;bottom=0;right=0;fontStyle=1;overflow=hidden;rounded=0;sketch=0;fontColor=#5C5C5C;strokeColor=#006658;fontSize=14;" parent="eae7AUCRyiLIYo3gLx5g-1" vertex="1"><mxGeometry width="70" height="30" as="geometry"><mxRectangle width="70" height="30" as="alternateBounds"/></mxGeometry></mxCell><mxCell id="eae7AUCRyiLIYo3gLx5g-3" value="user_id" style="shape=partialRectangle;connectable=0;fillColor=none;top=0;left=0;bottom=0;right=0;align=left;spacingLeft=6;fontStyle=5;overflow=hidden;rounded=0;sketch=0;fontColor=#5C5C5C;strokeColor=#006658;fontSize=14;" parent="eae7AUCRyiLIYo3gLx5g-1" vertex="1"><mxGeometry x="70" width="230" height="30" as="geometry"><mxRectangle width="230" height="30" as="alternateBounds"/></mxGeometry></mxCell><mxCell id="eae7AUCRyiLIYo3gLx5g-4" value="" style="shape=partialRectangle;collapsible=0;dropTarget=0;pointerEvents=0;fillColor=none;top=0;left=0;bottom=1;right=0;points=[[0,0.5],[1,0.5]];portConstraint=eastwest;rounded=0;sketch=0;fontColor=#5C5C5C;strokeColor=#006658;" parent="eae7AUCRyiLIYo3gLx5g-0" vertex="1"><mxGeometry y="60" width="300" height="20" as="geometry"/></mxCell><mxCell id="eae7AUCRyiLIYo3gLx5g-5" value="" style="shape=partialRectangle;connectable=0;fillColor=none;top=0;left=0;bottom=0;right=0;fontStyle=1;overflow=hidden;rounded=0;sketch=0;fontColor=#5C5C5C;strokeColor=#006658;" parent="eae7AUCRyiLIYo3gLx5g-4" vertex="1"><mxGeometry width="70" height="20" as="geometry"><mxRectangle width="70" height="20" as="alternateBounds"/></mxGeometry></mxCell><mxCell id="eae7AUCRyiLIYo3gLx5g-6" value="" style="shape=partialRectangle;connectable=0;fillColor=none;top=0;left=0;bottom=0;right=0;align=left;spacingLeft=6;fontStyle=5;overflow=hidden;rounded=0;sketch=0;fontColor=#5C5C5C;strokeColor=#006658;" parent="eae7AUCRyiLIYo3gLx5g-4" vertex="1"><mxGeometry x="70" width="230" height="20" as="geometry"><mxRectangle width="230" height="20" as="alternateBounds"/></mxGeometry></mxCell><mxCell id="eae7AUCRyiLIYo3gLx5g-7" value="" style="shape=partialRectangle;collapsible=0;dropTarget=0;pointerEvents=0;fillColor=none;top=0;left=0;bottom=0;right=0;points=[[0,0.5],[1,0.5]];portConstraint=eastwest;rounded=0;sketch=0;fontColor=#5C5C5C;strokeColor=#006658;" parent="eae7AUCRyiLIYo3gLx5g-0" vertex="1"><mxGeometry y="80" width="300" height="20" as="geometry"/></mxCell><mxCell id="eae7AUCRyiLIYo3gLx5g-8" value="" style="shape=partialRectangle;connectable=0;fillColor=none;top=0;left=0;bottom=0;right=0;editable=1;overflow=hidden;rounded=0;sketch=0;fontColor=#5C5C5C;strokeColor=#006658;fontSize=14;" parent="eae7AUCRyiLIYo3gLx5g-7" vertex="1"><mxGeometry width="70" height="20" as="geometry"><mxRectangle width="70" height="20" as="alternateBounds"/></mxGeometry></mxCell><mxCell id="eae7AUCRyiLIYo3gLx5g-9" value="username" style="shape=partialRectangle;connectable=0;fillColor=none;top=0;left=0;bottom=0;right=0;align=left;spacingLeft=6;overflow=hidden;rounded=0;sketch=0;fontColor=#5C5C5C;strokeColor=#006658;fontSize=14;" parent="eae7AUCRyiLIYo3gLx5g-7" vertex="1"><mxGeometry x="70" width="230" height="20" as="geometry"><mxRectangle width="230" height="20" as="alternateBounds"/></mxGeometry></mxCell><mxCell id="eae7AUCRyiLIYo3gLx5g-10" value="" style="shape=partialRectangle;collapsible=0;dropTarget=0;pointerEvents=0;fillColor=none;top=0;left=0;bottom=0;right=0;points=[[0,0.5],[1,0.5]];portConstraint=eastwest;rounded=0;sketch=0;fontColor=#5C5C5C;strokeColor=#006658;" parent="eae7AUCRyiLIYo3gLx5g-0" vertex="1"><mxGeometry y="100" width="300" height="30" as="geometry"/></mxCell><mxCell id="eae7AUCRyiLIYo3gLx5g-11" value="" style="shape=partialRectangle;connectable=0;fillColor=none;top=0;left=0;bottom=0;right=0;editable=1;overflow=hidden;rounded=0;sketch=0;fontColor=#5C5C5C;strokeColor=#006658;" parent="eae7AUCRyiLIYo3gLx5g-10" vertex="1"><mxGeometry width="70" height="30" as="geometry"><mxRectangle width="70" height="30" as="alternateBounds"/></mxGeometry></mxCell><mxCell id="eae7AUCRyiLIYo3gLx5g-12" value="password" style="shape=partialRectangle;connectable=0;fillColor=none;top=0;left=0;bottom=0;right=0;align=left;spacingLeft=6;overflow=hidden;rounded=0;sketch=0;fontColor=#5C5C5C;strokeColor=#006658;fontSize=14;" parent="eae7AUCRyiLIYo3gLx5g-10" vertex="1"><mxGeometry x="70" width="230" height="30" as="geometry"><mxRectangle width="230" height="30" as="alternateBounds"/></mxGeometry></mxCell><mxCell id="eae7AUCRyiLIYo3gLx5g-13" value="" style="shape=partialRectangle;collapsible=0;dropTarget=0;pointerEvents=0;fillColor=none;top=0;left=0;bottom=0;right=0;points=[[0,0.5],[1,0.5]];portConstraint=eastwest;rounded=0;shadow=0;sketch=0;fontSize=14;fontColor=#5C5C5C;strokeColor=default;" parent="eae7AUCRyiLIYo3gLx5g-0" vertex="1"><mxGeometry y="130" width="300" height="30" as="geometry"/></mxCell><mxCell id="eae7AUCRyiLIYo3gLx5g-14" value="" style="shape=partialRectangle;connectable=0;fillColor=none;top=0;left=0;bottom=0;right=0;editable=1;overflow=hidden;rounded=0;shadow=0;sketch=0;fontSize=14;fontColor=#5C5C5C;strokeColor=default;" parent="eae7AUCRyiLIYo3gLx5g-13" vertex="1"><mxGeometry width="70" height="30" as="geometry"><mxRectangle width="70" height="30" as="alternateBounds"/></mxGeometry></mxCell><mxCell id="eae7AUCRyiLIYo3gLx5g-15" value="email" style="shape=partialRectangle;connectable=0;fillColor=none;top=0;left=0;bottom=0;right=0;align=left;spacingLeft=6;overflow=hidden;rounded=0;shadow=0;sketch=0;fontSize=14;fontColor=#5C5C5C;strokeColor=default;" parent="eae7AUCRyiLIYo3gLx5g-13" vertex="1"><mxGeometry x="70" width="230" height="30" as="geometry"><mxRectangle width="230" height="30" as="alternateBounds"/></mxGeometry></mxCell><mxCell id="eae7AUCRyiLIYo3gLx5g-16" value="" style="shape=partialRectangle;collapsible=0;dropTarget=0;pointerEvents=0;fillColor=none;top=0;left=0;bottom=0;right=0;points=[[0,0.5],[1,0.5]];portConstraint=eastwest;rounded=0;shadow=0;sketch=0;fontSize=14;fontColor=#5C5C5C;strokeColor=default;" parent="eae7AUCRyiLIYo3gLx5g-0" vertex="1"><mxGeometry y="160" width="300" height="30" as="geometry"/></mxCell><mxCell id="eae7AUCRyiLIYo3gLx5g-17" value="" style="shape=partialRectangle;connectable=0;fillColor=none;top=0;left=0;bottom=0;right=0;fontStyle=0;overflow=hidden;rounded=0;shadow=0;sketch=0;fontSize=14;fontColor=#5C5C5C;strokeColor=default;" parent="eae7AUCRyiLIYo3gLx5g-16" vertex="1"><mxGeometry width="70" height="30" as="geometry"><mxRectangle width="70" height="30" as="alternateBounds"/></mxGeometry></mxCell><mxCell id="eae7AUCRyiLIYo3gLx5g-18" value="first_name" style="shape=partialRectangle;connectable=0;fillColor=none;top=0;left=0;bottom=0;right=0;align=left;spacingLeft=6;fontStyle=0;overflow=hidden;rounded=0;shadow=0;sketch=0;fontSize=14;fontColor=#5C5C5C;strokeColor=default;" parent="eae7AUCRyiLIYo3gLx5g-16" vertex="1"><mxGeometry x="70" width="230" height="30" as="geometry"><mxRectangle width="230" height="30" as="alternateBounds"/></mxGeometry></mxCell><mxCell id="eae7AUCRyiLIYo3gLx5g-19" value="" style="shape=partialRectangle;collapsible=0;dropTarget=0;pointerEvents=0;fillColor=none;top=0;left=0;bottom=0;right=0;points=[[0,0.5],[1,0.5]];portConstraint=eastwest;rounded=0;shadow=0;sketch=0;fontSize=14;fontColor=#5C5C5C;strokeColor=default;" parent="eae7AUCRyiLIYo3gLx5g-0" vertex="1"><mxGeometry y="190" width="300" height="30" as="geometry"/></mxCell><mxCell id="eae7AUCRyiLIYo3gLx5g-20" value="" style="shape=partialRectangle;connectable=0;fillColor=none;top=0;left=0;bottom=0;right=0;editable=1;overflow=hidden;rounded=0;shadow=0;sketch=0;fontSize=14;fontColor=#5C5C5C;strokeColor=default;" parent="eae7AUCRyiLIYo3gLx5g-19" vertex="1"><mxGeometry width="70" height="30" as="geometry"><mxRectangle width="70" height="30" as="alternateBounds"/></mxGeometry></mxCell><mxCell id="eae7AUCRyiLIYo3gLx5g-21" value="last_name" style="shape=partialRectangle;connectable=0;fillColor=none;top=0;left=0;bottom=0;right=0;align=left;spacingLeft=6;overflow=hidden;rounded=0;shadow=0;sketch=0;fontSize=14;fontColor=#5C5C5C;strokeColor=default;" parent="eae7AUCRyiLIYo3gLx5g-19" vertex="1"><mxGeometry x="70" width="230" height="30" as="geometry"><mxRectangle width="230" height="30" as="alternateBounds"/></mxGeometry></mxCell><mxCell id="eae7AUCRyiLIYo3gLx5g-22" value="" style="shape=partialRectangle;collapsible=0;dropTarget=0;pointerEvents=0;fillColor=none;top=0;left=0;bottom=0;right=0;points=[[0,0.5],[1,0.5]];portConstraint=eastwest;" parent="eae7AUCRyiLIYo3gLx5g-0" vertex="1"><mxGeometry y="220" width="300" height="30" as="geometry"/></mxCell><mxCell id="eae7AUCRyiLIYo3gLx5g-23" value="" style="shape=partialRectangle;connectable=0;fillColor=none;top=0;left=0;bottom=0;right=0;editable=1;overflow=hidden;" parent="eae7AUCRyiLIYo3gLx5g-22" vertex="1"><mxGeometry width="70" height="30" as="geometry"><mxRectangle width="70" height="30" as="alternateBounds"/></mxGeometry></mxCell><mxCell id="eae7AUCRyiLIYo3gLx5g-24" value="gender" style="shape=partialRectangle;connectable=0;fillColor=none;top=0;left=0;bottom=0;right=0;align=left;spacingLeft=6;overflow=hidden;" parent="eae7AUCRyiLIYo3gLx5g-22" vertex="1"><mxGeometry x="70" width="230" height="30" as="geometry"><mxRectangle width="230" height="30" as="alternateBounds"/></mxGeometry></mxCell><mxCell id="eae7AUCRyiLIYo3gLx5g-25" value="" style="shape=partialRectangle;collapsible=0;dropTarget=0;pointerEvents=0;fillColor=none;top=0;left=0;bottom=0;right=0;points=[[0,0.5],[1,0.5]];portConstraint=eastwest;" parent="eae7AUCRyiLIYo3gLx5g-0" vertex="1"><mxGeometry y="250" width="300" height="30" as="geometry"/></mxCell><mxCell id="eae7AUCRyiLIYo3gLx5g-26" value="" style="shape=partialRectangle;connectable=0;fillColor=none;top=0;left=0;bottom=0;right=0;editable=1;overflow=hidden;" parent="eae7AUCRyiLIYo3gLx5g-25" vertex="1"><mxGeometry width="70" height="30" as="geometry"><mxRectangle width="70" height="30" as="alternateBounds"/></mxGeometry></mxCell><mxCell id="eae7AUCRyiLIYo3gLx5g-27" value="user_height" style="shape=partialRectangle;connectable=0;fillColor=none;top=0;left=0;bottom=0;right=0;align=left;spacingLeft=6;overflow=hidden;" parent="eae7AUCRyiLIYo3gLx5g-25" vertex="1"><mxGeometry x="70" width="230" height="30" as="geometry"><mxRectangle width="230" height="30" as="alternateBounds"/></mxGeometry></mxCell><mxCell id="321WCU5JT88BYbTSTymU-47" value="" style="shape=partialRectangle;collapsible=0;dropTarget=0;pointerEvents=0;fillColor=none;top=0;left=0;bottom=0;right=0;points=[[0,0.5],[1,0.5]];portConstraint=eastwest;" parent="eae7AUCRyiLIYo3gLx5g-0" vertex="1"><mxGeometry y="280" width="300" height="30" as="geometry"/></mxCell><mxCell id="321WCU5JT88BYbTSTymU-48" value="" style="shape=partialRectangle;connectable=0;fillColor=none;top=0;left=0;bottom=0;right=0;editable=1;overflow=hidden;" parent="321WCU5JT88BYbTSTymU-47" vertex="1"><mxGeometry width="70" height="30" as="geometry"><mxRectangle width="70" height="30" as="alternateBounds"/></mxGeometry></mxCell><mxCell id="321WCU5JT88BYbTSTymU-49" value="user_weight" style="shape=partialRectangle;connectable=0;fillColor=none;top=0;left=0;bottom=0;right=0;align=left;spacingLeft=6;overflow=hidden;" parent="321WCU5JT88BYbTSTymU-47" vertex="1"><mxGeometry x="70" width="230" height="30" as="geometry"><mxRectangle width="230" height="30" as="alternateBounds"/></mxGeometry></mxCell><mxCell id="eae7AUCRyiLIYo3gLx5g-28" value="" style="shape=partialRectangle;collapsible=0;dropTarget=0;pointerEvents=0;fillColor=none;top=0;left=0;bottom=0;right=0;points=[[0,0.5],[1,0.5]];portConstraint=eastwest;" parent="eae7AUCRyiLIYo3gLx5g-0" vertex="1"><mxGeometry y="310" width="300" height="30" as="geometry"/></mxCell><mxCell id="eae7AUCRyiLIYo3gLx5g-29" value="" style="shape=partialRectangle;connectable=0;fillColor=none;top=0;left=0;bottom=0;right=0;editable=1;overflow=hidden;" parent="eae7AUCRyiLIYo3gLx5g-28" vertex="1"><mxGeometry width="70" height="30" as="geometry"><mxRectangle width="70" height="30" as="alternateBounds"/></mxGeometry></mxCell><mxCell id="eae7AUCRyiLIYo3gLx5g-30" value="boot_size" style="shape=partialRectangle;connectable=0;fillColor=none;top=0;left=0;bottom=0;right=0;align=left;spacingLeft=6;overflow=hidden;" parent="eae7AUCRyiLIYo3gLx5g-28" vertex="1"><mxGeometry x="70" width="230" height="30" as="geometry"><mxRectangle width="230" height="30" as="alternateBounds"/></mxGeometry></mxCell><mxCell id="eae7AUCRyiLIYo3gLx5g-31" value="" style="shape=partialRectangle;collapsible=0;dropTarget=0;pointerEvents=0;fillColor=none;top=0;left=0;bottom=0;right=0;points=[[0,0.5],[1,0.5]];portConstraint=eastwest;rounded=0;shadow=0;sketch=0;fontSize=14;fontColor=#5C5C5C;strokeColor=default;" parent="eae7AUCRyiLIYo3gLx5g-0" vertex="1"><mxGeometry y="340" width="300" height="30" as="geometry"/></mxCell><mxCell id="eae7AUCRyiLIYo3gLx5g-32" value="FK" style="shape=partialRectangle;connectable=0;fillColor=none;top=0;left=0;bottom=0;right=0;editable=1;overflow=hidden;rounded=0;shadow=0;sketch=0;fontSize=14;fontColor=#5C5C5C;strokeColor=default;" parent="eae7AUCRyiLIYo3gLx5g-31" vertex="1"><mxGeometry width="70" height="30" as="geometry"><mxRectangle width="70" height="30" as="alternateBounds"/></mxGeometry></mxCell><mxCell id="eae7AUCRyiLIYo3gLx5g-33" value="role_id" style="shape=partialRectangle;connectable=0;fillColor=none;top=0;left=0;bottom=0;right=0;align=left;spacingLeft=6;overflow=hidden;rounded=0;shadow=0;sketch=0;fontSize=14;fontColor=#5C5C5C;strokeColor=default;" parent="eae7AUCRyiLIYo3gLx5g-31" vertex="1"><mxGeometry x="70" width="230" height="30" as="geometry"><mxRectangle width="230" height="30" as="alternateBounds"/></mxGeometry></mxCell><mxCell id="eae7AUCRyiLIYo3gLx5g-34" value="action" style="shape=table;startSize=20;container=1;collapsible=1;childLayout=tableLayout;fixedRows=1;rowLines=0;fontStyle=1;align=center;resizeLast=1;rounded=0;shadow=0;sketch=0;fontSize=14;fillColor=#ffe6cc;strokeColor=#d79b00;" parent="OxAIse8aEnZKSFSd6LNi-1" vertex="1"><mxGeometry x="620" y="950" width="180" height="80" as="geometry"/></mxCell><mxCell id="eae7AUCRyiLIYo3gLx5g-35" value="" style="shape=partialRectangle;collapsible=0;dropTarget=0;pointerEvents=0;fillColor=none;top=0;left=0;bottom=1;right=0;points=[[0,0.5],[1,0.5]];portConstraint=eastwest;rounded=0;shadow=0;sketch=0;fontSize=14;fontColor=#5C5C5C;strokeColor=default;" parent="eae7AUCRyiLIYo3gLx5g-34" vertex="1"><mxGeometry y="20" width="180" height="30" as="geometry"/></mxCell><mxCell id="eae7AUCRyiLIYo3gLx5g-36" value="PK" style="shape=partialRectangle;connectable=0;fillColor=none;top=0;left=0;bottom=0;right=0;fontStyle=1;overflow=hidden;rounded=0;shadow=0;sketch=0;fontSize=14;fontColor=#5C5C5C;strokeColor=default;" parent="eae7AUCRyiLIYo3gLx5g-35" vertex="1"><mxGeometry width="30" height="30" as="geometry"><mxRectangle width="30" height="30" as="alternateBounds"/></mxGeometry></mxCell><mxCell id="eae7AUCRyiLIYo3gLx5g-37" value="action_id" style="shape=partialRectangle;connectable=0;fillColor=none;top=0;left=0;bottom=0;right=0;align=left;spacingLeft=6;fontStyle=5;overflow=hidden;rounded=0;shadow=0;sketch=0;fontSize=14;fontColor=#5C5C5C;strokeColor=default;" parent="eae7AUCRyiLIYo3gLx5g-35" vertex="1"><mxGeometry x="30" width="150" height="30" as="geometry"><mxRectangle width="150" height="30" as="alternateBounds"/></mxGeometry></mxCell><mxCell id="eae7AUCRyiLIYo3gLx5g-38" value="" style="shape=partialRectangle;collapsible=0;dropTarget=0;pointerEvents=0;fillColor=none;top=0;left=0;bottom=0;right=0;points=[[0,0.5],[1,0.5]];portConstraint=eastwest;rounded=0;shadow=0;sketch=0;fontSize=14;fontColor=#5C5C5C;strokeColor=default;" parent="eae7AUCRyiLIYo3gLx5g-34" vertex="1"><mxGeometry y="50" width="180" height="30" as="geometry"/></mxCell><mxCell id="eae7AUCRyiLIYo3gLx5g-39" value="" style="shape=partialRectangle;connectable=0;fillColor=none;top=0;left=0;bottom=0;right=0;editable=1;overflow=hidden;rounded=0;shadow=0;sketch=0;fontSize=14;fontColor=#5C5C5C;strokeColor=default;" parent="eae7AUCRyiLIYo3gLx5g-38" vertex="1"><mxGeometry width="30" height="30" as="geometry"><mxRectangle width="30" height="30" as="alternateBounds"/></mxGeometry></mxCell><mxCell id="eae7AUCRyiLIYo3gLx5g-40" value="action_name" style="shape=partialRectangle;connectable=0;fillColor=none;top=0;left=0;bottom=0;right=0;align=left;spacingLeft=6;overflow=hidden;rounded=0;shadow=0;sketch=0;fontSize=14;fontColor=#5C5C5C;strokeColor=default;" parent="eae7AUCRyiLIYo3gLx5g-38" vertex="1"><mxGeometry x="30" width="150" height="30" as="geometry"><mxRectangle width="150" height="30" as="alternateBounds"/></mxGeometry></mxCell><mxCell id="eae7AUCRyiLIYo3gLx5g-41" value="" style="edgeStyle=entityRelationEdgeStyle;fontSize=12;html=1;endArrow=ERzeroToMany;startArrow=ERmandOne;rounded=1;sketch=0;fontColor=#5C5C5C;strokeColor=#000000;fillColor=#21C0A5;curved=0;entryX=0;entryY=0.5;entryDx=0;entryDy=0;" parent="OxAIse8aEnZKSFSd6LNi-1" source="eae7AUCRyiLIYo3gLx5g-35" target="eae7AUCRyiLIYo3gLx5g-48" edge="1"><mxGeometry width="100" height="100" relative="1" as="geometry"><mxPoint x="730" y="535" as="sourcePoint"/><mxPoint x="1050" y="500" as="targetPoint"/></mxGeometry></mxCell><mxCell id="eae7AUCRyiLIYo3gLx5g-42" value="" style="shape=partialRectangle;collapsible=0;dropTarget=0;pointerEvents=0;fillColor=none;top=0;left=0;bottom=0;right=0;points=[[0,0.5],[1,0.5]];portConstraint=eastwest;rounded=0;shadow=0;sketch=0;fontSize=14;fontColor=#5C5C5C;strokeColor=default;" parent="OxAIse8aEnZKSFSd6LNi-1" vertex="1"><mxGeometry x="80" y="570" width="300" height="30" as="geometry"/></mxCell><mxCell id="eae7AUCRyiLIYo3gLx5g-43" value="" style="shape=partialRectangle;connectable=0;fillColor=none;top=0;left=0;bottom=0;right=0;editable=1;overflow=hidden;rounded=0;shadow=0;sketch=0;fontSize=14;fontColor=#5C5C5C;strokeColor=default;" parent="eae7AUCRyiLIYo3gLx5g-42" vertex="1"><mxGeometry width="70" height="30" as="geometry"><mxRectangle width="70" height="30" as="alternateBounds"/></mxGeometry></mxCell><mxCell id="eae7AUCRyiLIYo3gLx5g-44" value="role_action_link" style="shape=table;startSize=30;container=1;collapsible=1;childLayout=tableLayout;fixedRows=1;rowLines=0;fontStyle=1;align=center;resizeLast=1;rounded=0;shadow=0;sketch=0;fontSize=14;fillColor=#ffe6cc;strokeColor=#d79b00;" parent="OxAIse8aEnZKSFSd6LNi-1" vertex="1"><mxGeometry x="850" y="790" width="250" height="90" as="geometry"/></mxCell><mxCell id="eae7AUCRyiLIYo3gLx5g-45" value="" style="shape=partialRectangle;collapsible=0;dropTarget=0;pointerEvents=0;fillColor=none;top=0;left=0;bottom=1;right=0;points=[[0,0.5],[1,0.5]];portConstraint=eastwest;rounded=0;shadow=0;sketch=0;fontSize=14;fontColor=#5C5C5C;strokeColor=default;" parent="eae7AUCRyiLIYo3gLx5g-44" vertex="1"><mxGeometry y="30" width="250" height="30" as="geometry"/></mxCell><mxCell id="eae7AUCRyiLIYo3gLx5g-46" value="PK" style="shape=partialRectangle;connectable=0;fillColor=none;top=0;left=0;bottom=0;right=0;fontStyle=1;overflow=hidden;rounded=0;shadow=0;sketch=0;fontSize=14;fontColor=#5C5C5C;strokeColor=default;" parent="eae7AUCRyiLIYo3gLx5g-45" vertex="1"><mxGeometry width="70" height="30" as="geometry"><mxRectangle width="70" height="30" as="alternateBounds"/></mxGeometry></mxCell><mxCell id="eae7AUCRyiLIYo3gLx5g-47" value="role_id" style="shape=partialRectangle;connectable=0;fillColor=none;top=0;left=0;bottom=0;right=0;align=left;spacingLeft=6;fontStyle=5;overflow=hidden;rounded=0;shadow=0;sketch=0;fontSize=14;fontColor=#5C5C5C;strokeColor=default;" parent="eae7AUCRyiLIYo3gLx5g-45" vertex="1"><mxGeometry x="70" width="180" height="30" as="geometry"><mxRectangle width="180" height="30" as="alternateBounds"/></mxGeometry></mxCell><mxCell id="eae7AUCRyiLIYo3gLx5g-48" value="" style="shape=partialRectangle;collapsible=0;dropTarget=0;pointerEvents=0;fillColor=none;top=0;left=0;bottom=0;right=0;points=[[0,0.5],[1,0.5]];portConstraint=eastwest;rounded=0;shadow=0;sketch=0;fontSize=14;fontColor=none;strokeColor=default;" parent="eae7AUCRyiLIYo3gLx5g-44" vertex="1"><mxGeometry y="60" width="250" height="30" as="geometry"/></mxCell><mxCell id="eae7AUCRyiLIYo3gLx5g-49" value="FK" style="shape=partialRectangle;connectable=0;fillColor=none;top=0;left=0;bottom=0;right=0;editable=1;overflow=hidden;rounded=0;shadow=0;sketch=0;fontSize=14;fontColor=none;strokeColor=default;" parent="eae7AUCRyiLIYo3gLx5g-48" vertex="1"><mxGeometry width="70" height="30" as="geometry"><mxRectangle width="70" height="30" as="alternateBounds"/></mxGeometry></mxCell><mxCell id="eae7AUCRyiLIYo3gLx5g-50" value="action_id" style="shape=partialRectangle;connectable=0;fillColor=none;top=0;left=0;bottom=0;right=0;align=left;spacingLeft=6;overflow=hidden;rounded=0;shadow=0;sketch=0;fontSize=14;fontColor=none;strokeColor=default;" parent="eae7AUCRyiLIYo3gLx5g-48" vertex="1"><mxGeometry x="70" width="180" height="30" as="geometry"><mxRectangle width="180" height="30" as="alternateBounds"/></mxGeometry></mxCell><mxCell id="eae7AUCRyiLIYo3gLx5g-59" value="role" style="shape=table;startSize=30;container=1;collapsible=1;childLayout=tableLayout;fixedRows=1;rowLines=0;fontStyle=1;align=center;resizeLast=1;fontSize=14;fillColor=#ffe6cc;strokeColor=#d79b00;" parent="OxAIse8aEnZKSFSd6LNi-1" vertex="1"><mxGeometry x="470" y="780" width="260" height="90" as="geometry"/></mxCell><mxCell id="eae7AUCRyiLIYo3gLx5g-60" value="" style="shape=partialRectangle;collapsible=0;dropTarget=0;pointerEvents=0;fillColor=none;top=0;left=0;bottom=1;right=0;points=[[0,0.5],[1,0.5]];portConstraint=eastwest;fontSize=14;" parent="eae7AUCRyiLIYo3gLx5g-59" vertex="1"><mxGeometry y="30" width="260" height="40" as="geometry"/></mxCell><mxCell id="eae7AUCRyiLIYo3gLx5g-61" value="PK, FK" style="shape=partialRectangle;connectable=0;fillColor=none;top=0;left=0;bottom=0;right=0;fontStyle=1;overflow=hidden;fontSize=14;" parent="eae7AUCRyiLIYo3gLx5g-60" vertex="1"><mxGeometry width="70" height="40" as="geometry"><mxRectangle width="70" height="40" as="alternateBounds"/></mxGeometry></mxCell><mxCell id="eae7AUCRyiLIYo3gLx5g-62" value="role_id" style="shape=partialRectangle;connectable=0;fillColor=none;top=0;left=0;bottom=0;right=0;align=left;spacingLeft=6;fontStyle=5;overflow=hidden;fontSize=14;" parent="eae7AUCRyiLIYo3gLx5g-60" vertex="1"><mxGeometry x="70" width="190" height="40" as="geometry"><mxRectangle width="190" height="40" as="alternateBounds"/></mxGeometry></mxCell><mxCell id="eae7AUCRyiLIYo3gLx5g-63" value="" style="shape=partialRectangle;collapsible=0;dropTarget=0;pointerEvents=0;fillColor=none;top=0;left=0;bottom=0;right=0;points=[[0,0.5],[1,0.5]];portConstraint=eastwest;fontSize=14;" parent="eae7AUCRyiLIYo3gLx5g-59" vertex="1"><mxGeometry y="70" width="260" height="20" as="geometry"/></mxCell><mxCell id="eae7AUCRyiLIYo3gLx5g-64" value="" style="shape=partialRectangle;connectable=0;fillColor=none;top=0;left=0;bottom=0;right=0;editable=1;overflow=hidden;fontSize=14;" parent="eae7AUCRyiLIYo3gLx5g-63" vertex="1"><mxGeometry width="70" height="20" as="geometry"><mxRectangle width="70" height="20" as="alternateBounds"/></mxGeometry></mxCell><mxCell id="eae7AUCRyiLIYo3gLx5g-65" value="role_name" style="shape=partialRectangle;connectable=0;fillColor=none;top=0;left=0;bottom=0;right=0;align=left;spacingLeft=6;overflow=hidden;fontSize=14;" parent="eae7AUCRyiLIYo3gLx5g-63" vertex="1"><mxGeometry x="70" width="190" height="20" as="geometry"><mxRectangle width="190" height="20" as="alternateBounds"/></mxGeometry></mxCell><mxCell id="eae7AUCRyiLIYo3gLx5g-67" value="" style="edgeStyle=orthogonalEdgeStyle;fontSize=12;html=1;endArrow=ERmandOne;startArrow=ERmandOne;rounded=0;entryX=0;entryY=0.5;entryDx=0;entryDy=0;exitX=1;exitY=0.5;exitDx=0;exitDy=0;" parent="OxAIse8aEnZKSFSd6LNi-1" source="eae7AUCRyiLIYo3gLx5g-31" target="eae7AUCRyiLIYo3gLx5g-60" edge="1"><mxGeometry width="100" height="100" relative="1" as="geometry"><mxPoint x="384" y="675" as="sourcePoint"/><mxPoint x="710" y="620" as="targetPoint"/></mxGeometry></mxCell><mxCell id="eae7AUCRyiLIYo3gLx5g-85" value="cart" style="shape=table;startSize=30;container=1;collapsible=1;childLayout=tableLayout;fixedRows=1;rowLines=0;fontStyle=1;align=center;resizeLast=1;fillColor=#ffe6cc;strokeColor=#d79b00;" parent="OxAIse8aEnZKSFSd6LNi-1" vertex="1"><mxGeometry x="-250" y="400" width="180" height="120.00000000000045" as="geometry"/></mxCell><mxCell id="eae7AUCRyiLIYo3gLx5g-86" value="" style="shape=partialRectangle;collapsible=0;dropTarget=0;pointerEvents=0;fillColor=none;top=0;left=0;bottom=1;right=0;points=[[0,0.5],[1,0.5]];portConstraint=eastwest;" parent="eae7AUCRyiLIYo3gLx5g-85" vertex="1"><mxGeometry y="30" width="180" height="30" as="geometry"/></mxCell><mxCell id="eae7AUCRyiLIYo3gLx5g-87" value="PK" style="shape=partialRectangle;connectable=0;fillColor=none;top=0;left=0;bottom=0;right=0;fontStyle=1;overflow=hidden;" parent="eae7AUCRyiLIYo3gLx5g-86" vertex="1"><mxGeometry width="30" height="30" as="geometry"><mxRectangle width="30" height="30" as="alternateBounds"/></mxGeometry></mxCell><mxCell id="eae7AUCRyiLIYo3gLx5g-88" value="cart_id" style="shape=partialRectangle;connectable=0;fillColor=none;top=0;left=0;bottom=0;right=0;align=left;spacingLeft=6;fontStyle=5;overflow=hidden;" parent="eae7AUCRyiLIYo3gLx5g-86" vertex="1"><mxGeometry x="30" width="150" height="30" as="geometry"><mxRectangle width="150" height="30" as="alternateBounds"/></mxGeometry></mxCell><mxCell id="lgjnMqK-TowEc3vDbFTl-9" value="" style="shape=partialRectangle;collapsible=0;dropTarget=0;pointerEvents=0;fillColor=none;top=0;left=0;bottom=0;right=0;points=[[0,0.5],[1,0.5]];portConstraint=eastwest;" parent="eae7AUCRyiLIYo3gLx5g-85" vertex="1"><mxGeometry y="60" width="180" height="30" as="geometry"/></mxCell><mxCell id="lgjnMqK-TowEc3vDbFTl-10" value="" style="shape=partialRectangle;connectable=0;fillColor=none;top=0;left=0;bottom=0;right=0;editable=1;overflow=hidden;" parent="lgjnMqK-TowEc3vDbFTl-9" vertex="1"><mxGeometry width="30" height="30" as="geometry"><mxRectangle width="30" height="30" as="alternateBounds"/></mxGeometry></mxCell><mxCell id="lgjnMqK-TowEc3vDbFTl-11" value="start_reservation_date" style="shape=partialRectangle;connectable=0;fillColor=none;top=0;left=0;bottom=0;right=0;align=left;spacingLeft=6;overflow=hidden;" parent="lgjnMqK-TowEc3vDbFTl-9" vertex="1"><mxGeometry x="30" width="150" height="30" as="geometry"><mxRectangle width="150" height="30" as="alternateBounds"/></mxGeometry></mxCell><mxCell id="lgjnMqK-TowEc3vDbFTl-13" value="" style="shape=partialRectangle;collapsible=0;dropTarget=0;pointerEvents=0;fillColor=none;top=0;left=0;bottom=0;right=0;points=[[0,0.5],[1,0.5]];portConstraint=eastwest;" parent="eae7AUCRyiLIYo3gLx5g-85" vertex="1"><mxGeometry y="90" width="180" height="30" as="geometry"/></mxCell><mxCell id="lgjnMqK-TowEc3vDbFTl-14" value="" style="shape=partialRectangle;connectable=0;fillColor=none;top=0;left=0;bottom=0;right=0;editable=1;overflow=hidden;" parent="lgjnMqK-TowEc3vDbFTl-13" vertex="1"><mxGeometry width="30" height="30" as="geometry"><mxRectangle width="30" height="30" as="alternateBounds"/></mxGeometry></mxCell><mxCell id="lgjnMqK-TowEc3vDbFTl-15" value="reservation_number_day" style="shape=partialRectangle;connectable=0;fillColor=none;top=0;left=0;bottom=0;right=0;align=left;spacingLeft=6;overflow=hidden;" parent="lgjnMqK-TowEc3vDbFTl-13" vertex="1"><mxGeometry x="30" width="150" height="30" as="geometry"><mxRectangle width="150" height="30" as="alternateBounds"/></mxGeometry></mxCell><mxCell id="321WCU5JT88BYbTSTymU-67" value="" style="edgeStyle=entityRelationEdgeStyle;fontSize=12;html=1;endArrow=ERmandOne;startArrow=ERmandOne;rounded=0;entryX=0;entryY=0.5;entryDx=0;entryDy=0;" parent="OxAIse8aEnZKSFSd6LNi-1" target="eae7AUCRyiLIYo3gLx5g-1" edge="1"><mxGeometry width="100" height="100" relative="1" as="geometry"><mxPoint x="-70" y="456" as="sourcePoint"/><mxPoint x="20" y="400" as="targetPoint"/></mxGeometry></mxCell><mxCell id="321WCU5JT88BYbTSTymU-71" value="" style="edgeStyle=orthogonalEdgeStyle;fontSize=12;html=1;endArrow=ERzeroToMany;startArrow=ERmandOne;rounded=0;entryX=1;entryY=0.5;entryDx=0;entryDy=0;exitX=0;exitY=0.5;exitDx=0;exitDy=0;" parent="OxAIse8aEnZKSFSd6LNi-1" source="0Eo2dwkOJkQAOvrDeunt-35" target="321WCU5JT88BYbTSTymU-75" edge="1"><mxGeometry width="100" height="100" relative="1" as="geometry"><mxPoint x="290" y="1025" as="sourcePoint"/><mxPoint x="390" y="-15" as="targetPoint"/><Array as="points"><mxPoint x="440" y="395"/><mxPoint x="440" y="-35"/></Array></mxGeometry></mxCell><mxCell id="0Eo2dwkOJkQAOvrDeunt-0" value="order_history" style="shape=table;startSize=30;container=1;collapsible=1;childLayout=tableLayout;fixedRows=1;rowLines=0;fontStyle=1;align=center;resizeLast=1;fillColor=#ffe6cc;strokeColor=#d79b00;" parent="OxAIse8aEnZKSFSd6LNi-1" vertex="1"><mxGeometry x="470" y="530" width="180" height="180.0000000000009" as="geometry"/></mxCell><mxCell id="0Eo2dwkOJkQAOvrDeunt-14" value="" style="shape=partialRectangle;collapsible=0;dropTarget=0;pointerEvents=0;fillColor=none;top=0;left=0;bottom=1;right=0;points=[[0,0.5],[1,0.5]];portConstraint=eastwest;" parent="0Eo2dwkOJkQAOvrDeunt-0" vertex="1"><mxGeometry y="30" width="180" height="50" as="geometry"/></mxCell><mxCell id="0Eo2dwkOJkQAOvrDeunt-15" value="PK,&#10;FK" style="shape=partialRectangle;connectable=0;fillColor=none;top=0;left=0;bottom=0;right=0;fontStyle=1;overflow=hidden;" parent="0Eo2dwkOJkQAOvrDeunt-14" vertex="1"><mxGeometry width="30" height="50" as="geometry"><mxRectangle width="30" height="50" as="alternateBounds"/></mxGeometry></mxCell><mxCell id="0Eo2dwkOJkQAOvrDeunt-16" value="order_id" style="shape=partialRectangle;connectable=0;fillColor=none;top=0;left=0;bottom=0;right=0;align=left;spacingLeft=6;fontStyle=5;overflow=hidden;" parent="0Eo2dwkOJkQAOvrDeunt-14" vertex="1"><mxGeometry x="30" width="150" height="50" as="geometry"><mxRectangle width="150" height="50" as="alternateBounds"/></mxGeometry></mxCell><mxCell id="0Eo2dwkOJkQAOvrDeunt-1" value="" style="shape=partialRectangle;collapsible=0;dropTarget=0;pointerEvents=0;fillColor=none;top=0;left=0;bottom=1;right=0;points=[[0,0.5],[1,0.5]];portConstraint=eastwest;" parent="0Eo2dwkOJkQAOvrDeunt-0" vertex="1"><mxGeometry y="80" width="180" height="40" as="geometry"/></mxCell><mxCell id="0Eo2dwkOJkQAOvrDeunt-2" value="FK" style="shape=partialRectangle;connectable=0;fillColor=none;top=0;left=0;bottom=0;right=0;fontStyle=0;overflow=hidden;" parent="0Eo2dwkOJkQAOvrDeunt-1" vertex="1"><mxGeometry width="30" height="40" as="geometry"><mxRectangle width="30" height="40" as="alternateBounds"/></mxGeometry></mxCell><mxCell id="0Eo2dwkOJkQAOvrDeunt-3" value="user_id" style="shape=partialRectangle;connectable=0;fillColor=none;top=0;left=0;bottom=0;right=0;align=left;spacingLeft=6;fontStyle=0;overflow=hidden;" parent="0Eo2dwkOJkQAOvrDeunt-1" vertex="1"><mxGeometry x="30" width="150" height="40" as="geometry"><mxRectangle width="150" height="40" as="alternateBounds"/></mxGeometry></mxCell><mxCell id="0Eo2dwkOJkQAOvrDeunt-39" value="" style="shape=partialRectangle;collapsible=0;dropTarget=0;pointerEvents=0;fillColor=none;top=0;left=0;bottom=0;right=0;points=[[0,0.5],[1,0.5]];portConstraint=eastwest;" parent="0Eo2dwkOJkQAOvrDeunt-0" vertex="1"><mxGeometry y="120" width="180" height="30" as="geometry"/></mxCell><mxCell id="0Eo2dwkOJkQAOvrDeunt-40" value="" style="shape=partialRectangle;connectable=0;fillColor=none;top=0;left=0;bottom=0;right=0;editable=1;overflow=hidden;" parent="0Eo2dwkOJkQAOvrDeunt-39" vertex="1"><mxGeometry width="30" height="30" as="geometry"><mxRectangle width="30" height="30" as="alternateBounds"/></mxGeometry></mxCell><mxCell id="0Eo2dwkOJkQAOvrDeunt-41" value="order_date" style="shape=partialRectangle;connectable=0;fillColor=none;top=0;left=0;bottom=0;right=0;align=left;spacingLeft=6;overflow=hidden;" parent="0Eo2dwkOJkQAOvrDeunt-39" vertex="1"><mxGeometry x="30" width="150" height="30" as="geometry"><mxRectangle width="150" height="30" as="alternateBounds"/></mxGeometry></mxCell><mxCell id="0Eo2dwkOJkQAOvrDeunt-43" value="" style="shape=partialRectangle;collapsible=0;dropTarget=0;pointerEvents=0;fillColor=none;top=0;left=0;bottom=0;right=0;points=[[0,0.5],[1,0.5]];portConstraint=eastwest;" parent="0Eo2dwkOJkQAOvrDeunt-0" vertex="1"><mxGeometry y="150" width="180" height="30" as="geometry"/></mxCell><mxCell id="0Eo2dwkOJkQAOvrDeunt-44" value="" style="shape=partialRectangle;connectable=0;fillColor=none;top=0;left=0;bottom=0;right=0;editable=1;overflow=hidden;" parent="0Eo2dwkOJkQAOvrDeunt-43" vertex="1"><mxGeometry width="30" height="30" as="geometry"><mxRectangle width="30" height="30" as="alternateBounds"/></mxGeometry></mxCell><mxCell id="0Eo2dwkOJkQAOvrDeunt-45" value="reservation_number_day" style="shape=partialRectangle;connectable=0;fillColor=none;top=0;left=0;bottom=0;right=0;align=left;spacingLeft=6;overflow=hidden;" parent="0Eo2dwkOJkQAOvrDeunt-43" vertex="1"><mxGeometry x="30" width="150" height="30" as="geometry"><mxRectangle width="150" height="30" as="alternateBounds"/></mxGeometry></mxCell><mxCell id="0Eo2dwkOJkQAOvrDeunt-17" value="" style="edgeStyle=entityRelationEdgeStyle;fontSize=12;html=1;endArrow=ERoneToMany;startArrow=ERmandOne;rounded=0;exitX=1;exitY=0.5;exitDx=0;exitDy=0;entryX=0;entryY=0.5;entryDx=0;entryDy=0;" parent="OxAIse8aEnZKSFSd6LNi-1" source="eae7AUCRyiLIYo3gLx5g-1" target="0Eo2dwkOJkQAOvrDeunt-1" edge="1"><mxGeometry width="100" height="100" relative="1" as="geometry"><mxPoint x="340" y="670" as="sourcePoint"/><mxPoint x="440" y="570" as="targetPoint"/></mxGeometry></mxCell><mxCell id="0Eo2dwkOJkQAOvrDeunt-20" value="" style="edgeStyle=entityRelationEdgeStyle;fontSize=12;html=1;endArrow=ERoneToMany;startArrow=ERmandOne;rounded=0;entryX=0;entryY=0.5;entryDx=0;entryDy=0;" parent="OxAIse8aEnZKSFSd6LNi-1" source="eae7AUCRyiLIYo3gLx5g-60" target="eae7AUCRyiLIYo3gLx5g-45" edge="1"><mxGeometry width="100" height="100" relative="1" as="geometry"><mxPoint x="970" y="660" as="sourcePoint"/><mxPoint x="1070" y="560" as="targetPoint"/></mxGeometry></mxCell><mxCell id="0Eo2dwkOJkQAOvrDeunt-21" value="orderhistory_equipment_link" style="shape=table;startSize=30;container=1;collapsible=1;childLayout=tableLayout;fixedRows=1;rowLines=0;fontStyle=1;align=center;resizeLast=1;fillColor=#ffe6cc;strokeColor=#d79b00;" parent="OxAIse8aEnZKSFSd6LNi-1" vertex="1"><mxGeometry x="480" y="320" width="180" height="90" as="geometry"/></mxCell><mxCell id="0Eo2dwkOJkQAOvrDeunt-22" value="" style="shape=partialRectangle;collapsible=0;dropTarget=0;pointerEvents=0;fillColor=none;top=0;left=0;bottom=1;right=0;points=[[0,0.5],[1,0.5]];portConstraint=eastwest;" parent="0Eo2dwkOJkQAOvrDeunt-21" vertex="1"><mxGeometry y="30" width="180" height="30" as="geometry"/></mxCell><mxCell id="0Eo2dwkOJkQAOvrDeunt-23" value="PK" style="shape=partialRectangle;connectable=0;fillColor=none;top=0;left=0;bottom=0;right=0;fontStyle=1;overflow=hidden;" parent="0Eo2dwkOJkQAOvrDeunt-22" vertex="1"><mxGeometry width="30" height="30" as="geometry"><mxRectangle width="30" height="30" as="alternateBounds"/></mxGeometry></mxCell><mxCell id="0Eo2dwkOJkQAOvrDeunt-24" value="order_id" style="shape=partialRectangle;connectable=0;fillColor=none;top=0;left=0;bottom=0;right=0;align=left;spacingLeft=6;fontStyle=5;overflow=hidden;" parent="0Eo2dwkOJkQAOvrDeunt-22" vertex="1"><mxGeometry x="30" width="150" height="30" as="geometry"><mxRectangle width="150" height="30" as="alternateBounds"/></mxGeometry></mxCell><mxCell id="0Eo2dwkOJkQAOvrDeunt-35" value="" style="shape=partialRectangle;collapsible=0;dropTarget=0;pointerEvents=0;fillColor=none;top=0;left=0;bottom=1;right=0;points=[[0,0.5],[1,0.5]];portConstraint=eastwest;" parent="0Eo2dwkOJkQAOvrDeunt-21" vertex="1"><mxGeometry y="60" width="180" height="30" as="geometry"/></mxCell><mxCell id="0Eo2dwkOJkQAOvrDeunt-36" value="PK" style="shape=partialRectangle;connectable=0;fillColor=none;top=0;left=0;bottom=0;right=0;fontStyle=1;overflow=hidden;" parent="0Eo2dwkOJkQAOvrDeunt-35" vertex="1"><mxGeometry width="30" height="30" as="geometry"><mxRectangle width="30" height="30" as="alternateBounds"/></mxGeometry></mxCell><mxCell id="0Eo2dwkOJkQAOvrDeunt-37" value="equipment_id" style="shape=partialRectangle;connectable=0;fillColor=none;top=0;left=0;bottom=0;right=0;align=left;spacingLeft=6;fontStyle=5;overflow=hidden;" parent="0Eo2dwkOJkQAOvrDeunt-35" vertex="1"><mxGeometry x="30" width="150" height="30" as="geometry"><mxRectangle width="150" height="30" as="alternateBounds"/></mxGeometry></mxCell><mxCell id="0Eo2dwkOJkQAOvrDeunt-46" value="" style="edgeStyle=orthogonalEdgeStyle;fontSize=12;html=1;endArrow=ERzeroToMany;startArrow=ERmandOne;rounded=0;exitX=1;exitY=0.5;exitDx=0;exitDy=0;entryX=1;entryY=0.5;entryDx=0;entryDy=0;" parent="OxAIse8aEnZKSFSd6LNi-1" source="0Eo2dwkOJkQAOvrDeunt-14" target="0Eo2dwkOJkQAOvrDeunt-22" edge="1"><mxGeometry width="100" height="100" relative="1" as="geometry"><mxPoint x="820" y="700" as="sourcePoint"/><mxPoint x="920" y="600" as="targetPoint"/><Array as="points"><mxPoint x="690" y="585"/><mxPoint x="690" y="365"/></Array></mxGeometry></mxCell><mxCell id="0Eo2dwkOJkQAOvrDeunt-68" value="cart_equipment_link" style="shape=table;startSize=30;container=1;collapsible=1;childLayout=tableLayout;fixedRows=1;rowLines=0;fontStyle=1;align=center;resizeLast=1;fillColor=#ffe6cc;strokeColor=#d79b00;" parent="OxAIse8aEnZKSFSd6LNi-1" vertex="1"><mxGeometry x="-90" y="150" width="180" height="90" as="geometry"/></mxCell><mxCell id="0Eo2dwkOJkQAOvrDeunt-69" value="" style="shape=partialRectangle;collapsible=0;dropTarget=0;pointerEvents=0;fillColor=none;top=0;left=0;bottom=1;right=0;points=[[0,0.5],[1,0.5]];portConstraint=eastwest;" parent="0Eo2dwkOJkQAOvrDeunt-68" vertex="1"><mxGeometry y="30" width="180" height="30" as="geometry"/></mxCell><mxCell id="0Eo2dwkOJkQAOvrDeunt-70" value="PK" style="shape=partialRectangle;connectable=0;fillColor=none;top=0;left=0;bottom=0;right=0;fontStyle=1;overflow=hidden;" parent="0Eo2dwkOJkQAOvrDeunt-69" vertex="1"><mxGeometry width="30" height="30" as="geometry"><mxRectangle width="30" height="30" as="alternateBounds"/></mxGeometry></mxCell><mxCell id="0Eo2dwkOJkQAOvrDeunt-71" value="cart_id" style="shape=partialRectangle;connectable=0;fillColor=none;top=0;left=0;bottom=0;right=0;align=left;spacingLeft=6;fontStyle=5;overflow=hidden;" parent="0Eo2dwkOJkQAOvrDeunt-69" vertex="1"><mxGeometry x="30" width="150" height="30" as="geometry"><mxRectangle width="150" height="30" as="alternateBounds"/></mxGeometry></mxCell><mxCell id="0Eo2dwkOJkQAOvrDeunt-82" value="" style="shape=partialRectangle;collapsible=0;dropTarget=0;pointerEvents=0;fillColor=none;top=0;left=0;bottom=1;right=0;points=[[0,0.5],[1,0.5]];portConstraint=eastwest;" parent="0Eo2dwkOJkQAOvrDeunt-68" vertex="1"><mxGeometry y="60" width="180" height="30" as="geometry"/></mxCell><mxCell id="0Eo2dwkOJkQAOvrDeunt-83" value="PK" style="shape=partialRectangle;connectable=0;fillColor=none;top=0;left=0;bottom=0;right=0;fontStyle=1;overflow=hidden;" parent="0Eo2dwkOJkQAOvrDeunt-82" vertex="1"><mxGeometry width="30" height="30" as="geometry"><mxRectangle width="30" height="30" as="alternateBounds"/></mxGeometry></mxCell><mxCell id="0Eo2dwkOJkQAOvrDeunt-84" value="equipment_id" style="shape=partialRectangle;connectable=0;fillColor=none;top=0;left=0;bottom=0;right=0;align=left;spacingLeft=6;fontStyle=5;overflow=hidden;" parent="0Eo2dwkOJkQAOvrDeunt-82" vertex="1"><mxGeometry x="30" width="150" height="30" as="geometry"><mxRectangle width="150" height="30" as="alternateBounds"/></mxGeometry></mxCell><mxCell id="0Eo2dwkOJkQAOvrDeunt-85" value="" style="edgeStyle=orthogonalEdgeStyle;fontSize=12;html=1;endArrow=ERoneToMany;startArrow=ERmandOne;rounded=0;entryX=1.014;entryY=0.333;entryDx=0;entryDy=0;exitX=1.011;exitY=0.27;exitDx=0;exitDy=0;exitPerimeter=0;entryPerimeter=0;" parent="OxAIse8aEnZKSFSd6LNi-1" source="eae7AUCRyiLIYo3gLx5g-86" target="0Eo2dwkOJkQAOvrDeunt-69" edge="1"><mxGeometry width="100" height="100" relative="1" as="geometry"><mxPoint x="-260" y="290" as="sourcePoint"/><mxPoint x="-160" y="190" as="targetPoint"/><Array as="points"><mxPoint x="110" y="438"/><mxPoint x="110" y="190"/></Array></mxGeometry></mxCell><mxCell id="0Eo2dwkOJkQAOvrDeunt-86" value="" style="edgeStyle=entityRelationEdgeStyle;fontSize=12;html=1;endArrow=ERoneToMany;startArrow=ERmandOne;rounded=0;entryX=1;entryY=0.5;entryDx=0;entryDy=0;exitX=0.006;exitY=0.247;exitDx=0;exitDy=0;exitPerimeter=0;" parent="OxAIse8aEnZKSFSd6LNi-1" source="321WCU5JT88BYbTSTymU-75" target="0Eo2dwkOJkQAOvrDeunt-82" edge="1"><mxGeometry width="100" height="100" relative="1" as="geometry"><mxPoint x="130" y="270" as="sourcePoint"/><mxPoint x="230" y="170" as="targetPoint"/></mxGeometry></mxCell></root></mxGraphModel></diagram><diagram name="v.2 EPIC (Catalog)" id="0iu8MF2_Wuvb9zj4uKB5"><mxGraphModel dx="1728" dy="1487" grid="1" gridSize="10" guides="1" tooltips="1" connect="1" arrows="1" fold="1" page="1" pageScale="1" pageWidth="850" pageHeight="1100" math="0" shadow="0"><root><mxCell id="L89QSRtBMgVIycEGR7nq-0"/><mxCell id="L89QSRtBMgVIycEGR7nq-1" parent="L89QSRtBMgVIycEGR7nq-0"/><mxCell id="L89QSRtBMgVIycEGR7nq-2" value="image" style="shape=table;startSize=30;container=1;collapsible=1;childLayout=tableLayout;fixedRows=1;rowLines=0;fontStyle=1;align=center;resizeLast=1;fillColor=#ffe6cc;strokeColor=#d79b00;" parent="L89QSRtBMgVIycEGR7nq-1" vertex="1"><mxGeometry x="470" y="-320" width="180" height="130" as="geometry"/></mxCell><mxCell id="L89QSRtBMgVIycEGR7nq-3" value="" style="shape=partialRectangle;collapsible=0;dropTarget=0;pointerEvents=0;fillColor=none;top=0;left=0;bottom=1;right=0;points=[[0,0.5],[1,0.5]];portConstraint=eastwest;" parent="L89QSRtBMgVIycEGR7nq-2" vertex="1"><mxGeometry y="30" width="180" height="70" as="geometry"/></mxCell><mxCell id="L89QSRtBMgVIycEGR7nq-4" value="PK" style="shape=partialRectangle;connectable=0;fillColor=none;top=0;left=0;bottom=0;right=0;fontStyle=1;overflow=hidden;" parent="L89QSRtBMgVIycEGR7nq-3" vertex="1"><mxGeometry width="30" height="70" as="geometry"><mxRectangle width="30" height="70" as="alternateBounds"/></mxGeometry></mxCell><mxCell id="L89QSRtBMgVIycEGR7nq-5" value="image_id" style="shape=partialRectangle;connectable=0;fillColor=none;top=0;left=0;bottom=0;right=0;align=left;spacingLeft=6;fontStyle=5;overflow=hidden;" parent="L89QSRtBMgVIycEGR7nq-3" vertex="1"><mxGeometry x="30" width="150" height="70" as="geometry"><mxRectangle width="150" height="70" as="alternateBounds"/></mxGeometry></mxCell><mxCell id="L89QSRtBMgVIycEGR7nq-6" value="" style="shape=partialRectangle;collapsible=0;dropTarget=0;pointerEvents=0;fillColor=none;top=0;left=0;bottom=0;right=0;points=[[0,0.5],[1,0.5]];portConstraint=eastwest;" parent="L89QSRtBMgVIycEGR7nq-2" vertex="1"><mxGeometry y="100" width="180" height="30" as="geometry"/></mxCell><mxCell id="L89QSRtBMgVIycEGR7nq-7" value="" style="shape=partialRectangle;connectable=0;fillColor=none;top=0;left=0;bottom=0;right=0;editable=1;overflow=hidden;" parent="L89QSRtBMgVIycEGR7nq-6" vertex="1"><mxGeometry width="30" height="30" as="geometry"><mxRectangle width="30" height="30" as="alternateBounds"/></mxGeometry></mxCell><mxCell id="L89QSRtBMgVIycEGR7nq-8" value="image_name" style="shape=partialRectangle;connectable=0;fillColor=none;top=0;left=0;bottom=0;right=0;align=left;spacingLeft=6;overflow=hidden;" parent="L89QSRtBMgVIycEGR7nq-6" vertex="1"><mxGeometry x="30" width="150" height="30" as="geometry"><mxRectangle width="150" height="30" as="alternateBounds"/></mxGeometry></mxCell><mxCell id="L89QSRtBMgVIycEGR7nq-9" value="item" style="shape=table;startSize=30;container=1;collapsible=1;childLayout=tableLayout;fixedRows=1;rowLines=0;fontStyle=1;align=center;resizeLast=1;fillColor=#ffe6cc;strokeColor=#d79b00;" parent="L89QSRtBMgVIycEGR7nq-1" vertex="1"><mxGeometry x="210" y="-80" width="180" height="380" as="geometry"/></mxCell><mxCell id="L89QSRtBMgVIycEGR7nq-10" value="" style="shape=partialRectangle;collapsible=0;dropTarget=0;pointerEvents=0;fillColor=none;top=0;left=0;bottom=0;right=0;points=[[0,0.5],[1,0.5]];portConstraint=eastwest;" parent="L89QSRtBMgVIycEGR7nq-9" vertex="1"><mxGeometry y="30" width="180" height="30" as="geometry"/></mxCell><mxCell id="L89QSRtBMgVIycEGR7nq-11" value="PK,&#10;FK&#10;" style="shape=partialRectangle;connectable=0;fillColor=none;top=0;left=0;bottom=0;right=0;editable=1;overflow=hidden;fontStyle=5" parent="L89QSRtBMgVIycEGR7nq-10" vertex="1"><mxGeometry width="30" height="30" as="geometry"><mxRectangle width="30" height="30" as="alternateBounds"/></mxGeometry></mxCell><mxCell id="L89QSRtBMgVIycEGR7nq-12" value="item_id" style="shape=partialRectangle;connectable=0;fillColor=none;top=0;left=0;bottom=0;right=0;align=left;spacingLeft=6;overflow=hidden;fontStyle=5" parent="L89QSRtBMgVIycEGR7nq-10" vertex="1"><mxGeometry x="30" width="150" height="30" as="geometry"><mxRectangle width="150" height="30" as="alternateBounds"/></mxGeometry></mxCell><mxCell id="L89QSRtBMgVIycEGR7nq-13" value="" style="shape=partialRectangle;collapsible=0;dropTarget=0;pointerEvents=0;fillColor=none;top=0;left=0;bottom=0;right=0;points=[[0,0.5],[1,0.5]];portConstraint=eastwest;" parent="L89QSRtBMgVIycEGR7nq-9" vertex="1"><mxGeometry y="60" width="180" height="20" as="geometry"/></mxCell><mxCell id="L89QSRtBMgVIycEGR7nq-14" value="" style="shape=partialRectangle;connectable=0;fillColor=none;top=0;left=0;bottom=0;right=0;editable=1;overflow=hidden;" parent="L89QSRtBMgVIycEGR7nq-13" vertex="1"><mxGeometry width="30" height="20" as="geometry"><mxRectangle width="30" height="20" as="alternateBounds"/></mxGeometry></mxCell><mxCell id="L89QSRtBMgVIycEGR7nq-15" value="product_name" style="shape=partialRectangle;connectable=0;fillColor=none;top=0;left=0;bottom=0;right=0;align=left;spacingLeft=6;overflow=hidden;" parent="L89QSRtBMgVIycEGR7nq-13" vertex="1"><mxGeometry x="30" width="150" height="20" as="geometry"><mxRectangle width="150" height="20" as="alternateBounds"/></mxGeometry></mxCell><mxCell id="L89QSRtBMgVIycEGR7nq-16" value="" style="shape=partialRectangle;collapsible=0;dropTarget=0;pointerEvents=0;fillColor=none;top=0;left=0;bottom=0;right=0;points=[[0,0.5],[1,0.5]];portConstraint=eastwest;" parent="L89QSRtBMgVIycEGR7nq-9" vertex="1"><mxGeometry y="80" width="180" height="30" as="geometry"/></mxCell><mxCell id="L89QSRtBMgVIycEGR7nq-17" value="FK" style="shape=partialRectangle;connectable=0;fillColor=none;top=0;left=0;bottom=0;right=0;fontStyle=0;overflow=hidden;" parent="L89QSRtBMgVIycEGR7nq-16" vertex="1"><mxGeometry width="30" height="30" as="geometry"><mxRectangle width="30" height="30" as="alternateBounds"/></mxGeometry></mxCell><mxCell id="L89QSRtBMgVIycEGR7nq-18" value="image_id" style="shape=partialRectangle;connectable=0;fillColor=none;top=0;left=0;bottom=0;right=0;align=left;spacingLeft=6;fontStyle=0;overflow=hidden;" parent="L89QSRtBMgVIycEGR7nq-16" vertex="1"><mxGeometry x="30" width="150" height="30" as="geometry"><mxRectangle width="150" height="30" as="alternateBounds"/></mxGeometry></mxCell><mxCell id="L89QSRtBMgVIycEGR7nq-19" value="" style="shape=partialRectangle;collapsible=0;dropTarget=0;pointerEvents=0;fillColor=none;top=0;left=0;bottom=0;right=0;points=[[0,0.5],[1,0.5]];portConstraint=eastwest;" parent="L89QSRtBMgVIycEGR7nq-9" vertex="1"><mxGeometry y="110" width="180" height="30" as="geometry"/></mxCell><mxCell id="L89QSRtBMgVIycEGR7nq-20" value="" style="shape=partialRectangle;connectable=0;fillColor=none;top=0;left=0;bottom=0;right=0;editable=1;overflow=hidden;" parent="L89QSRtBMgVIycEGR7nq-19" vertex="1"><mxGeometry width="30" height="30" as="geometry"><mxRectangle width="30" height="30" as="alternateBounds"/></mxGeometry></mxCell><mxCell id="L89QSRtBMgVIycEGR7nq-21" value="maker" style="shape=partialRectangle;connectable=0;fillColor=none;top=0;left=0;bottom=0;right=0;align=left;spacingLeft=6;overflow=hidden;" parent="L89QSRtBMgVIycEGR7nq-19" vertex="1"><mxGeometry x="30" width="150" height="30" as="geometry"><mxRectangle width="150" height="30" as="alternateBounds"/></mxGeometry></mxCell><mxCell id="L89QSRtBMgVIycEGR7nq-25" value="" style="shape=partialRectangle;collapsible=0;dropTarget=0;pointerEvents=0;fillColor=none;top=0;left=0;bottom=0;right=0;points=[[0,0.5],[1,0.5]];portConstraint=eastwest;" parent="L89QSRtBMgVIycEGR7nq-9" vertex="1"><mxGeometry y="140" width="180" height="30" as="geometry"/></mxCell><mxCell id="L89QSRtBMgVIycEGR7nq-26" value="" style="shape=partialRectangle;connectable=0;fillColor=none;top=0;left=0;bottom=0;right=0;editable=1;overflow=hidden;" parent="L89QSRtBMgVIycEGR7nq-25" vertex="1"><mxGeometry width="30" height="30" as="geometry"><mxRectangle width="30" height="30" as="alternateBounds"/></mxGeometry></mxCell><mxCell id="L89QSRtBMgVIycEGR7nq-27" value="lacing_system" style="shape=partialRectangle;connectable=0;fillColor=none;top=0;left=0;bottom=0;right=0;align=left;spacingLeft=6;overflow=hidden;" parent="L89QSRtBMgVIycEGR7nq-25" vertex="1"><mxGeometry x="30" width="150" height="30" as="geometry"><mxRectangle width="150" height="30" as="alternateBounds"/></mxGeometry></mxCell><mxCell id="L89QSRtBMgVIycEGR7nq-28" value="" style="shape=partialRectangle;collapsible=0;dropTarget=0;pointerEvents=0;fillColor=none;top=0;left=0;bottom=0;right=0;points=[[0,0.5],[1,0.5]];portConstraint=eastwest;" parent="L89QSRtBMgVIycEGR7nq-9" vertex="1"><mxGeometry y="170" width="180" height="30" as="geometry"/></mxCell><mxCell id="L89QSRtBMgVIycEGR7nq-29" value="" style="shape=partialRectangle;connectable=0;fillColor=none;top=0;left=0;bottom=0;right=0;editable=1;overflow=hidden;" parent="L89QSRtBMgVIycEGR7nq-28" vertex="1"><mxGeometry width="30" height="30" as="geometry"><mxRectangle width="30" height="30" as="alternateBounds"/></mxGeometry></mxCell><mxCell id="L89QSRtBMgVIycEGR7nq-30" value="gender" style="shape=partialRectangle;connectable=0;fillColor=none;top=0;left=0;bottom=0;right=0;align=left;spacingLeft=6;overflow=hidden;" parent="L89QSRtBMgVIycEGR7nq-28" vertex="1"><mxGeometry x="30" width="150" height="30" as="geometry"><mxRectangle width="150" height="30" as="alternateBounds"/></mxGeometry></mxCell><mxCell id="L89QSRtBMgVIycEGR7nq-31" value="" style="shape=partialRectangle;collapsible=0;dropTarget=0;pointerEvents=0;fillColor=none;top=0;left=0;bottom=0;right=0;points=[[0,0.5],[1,0.5]];portConstraint=eastwest;" parent="L89QSRtBMgVIycEGR7nq-9" vertex="1"><mxGeometry y="200" width="180" height="30" as="geometry"/></mxCell><mxCell id="L89QSRtBMgVIycEGR7nq-32" value="" style="shape=partialRectangle;connectable=0;fillColor=none;top=0;left=0;bottom=0;right=0;editable=1;overflow=hidden;" parent="L89QSRtBMgVIycEGR7nq-31" vertex="1"><mxGeometry width="30" height="30" as="geometry"><mxRectangle width="30" height="30" as="alternateBounds"/></mxGeometry></mxCell><mxCell id="L89QSRtBMgVIycEGR7nq-33" value="membrane" style="shape=partialRectangle;connectable=0;fillColor=none;top=0;left=0;bottom=0;right=0;align=left;spacingLeft=6;overflow=hidden;" parent="L89QSRtBMgVIycEGR7nq-31" vertex="1"><mxGeometry x="30" width="150" height="30" as="geometry"><mxRectangle width="150" height="30" as="alternateBounds"/></mxGeometry></mxCell><mxCell id="L89QSRtBMgVIycEGR7nq-34" value="" style="shape=partialRectangle;collapsible=0;dropTarget=0;pointerEvents=0;fillColor=none;top=0;left=0;bottom=0;right=0;points=[[0,0.5],[1,0.5]];portConstraint=eastwest;" parent="L89QSRtBMgVIycEGR7nq-9" vertex="1"><mxGeometry y="230" width="180" height="30" as="geometry"/></mxCell><mxCell id="L89QSRtBMgVIycEGR7nq-35" value="" style="shape=partialRectangle;connectable=0;fillColor=none;top=0;left=0;bottom=0;right=0;editable=1;overflow=hidden;" parent="L89QSRtBMgVIycEGR7nq-34" vertex="1"><mxGeometry width="30" height="30" as="geometry"><mxRectangle width="30" height="30" as="alternateBounds"/></mxGeometry></mxCell><mxCell id="L89QSRtBMgVIycEGR7nq-36" value="riding_level" style="shape=partialRectangle;connectable=0;fillColor=none;top=0;left=0;bottom=0;right=0;align=left;spacingLeft=6;overflow=hidden;" parent="L89QSRtBMgVIycEGR7nq-34" vertex="1"><mxGeometry x="30" width="150" height="30" as="geometry"><mxRectangle width="150" height="30" as="alternateBounds"/></mxGeometry></mxCell><mxCell id="L89QSRtBMgVIycEGR7nq-37" value="" style="shape=partialRectangle;collapsible=0;dropTarget=0;pointerEvents=0;fillColor=none;top=0;left=0;bottom=0;right=0;points=[[0,0.5],[1,0.5]];portConstraint=eastwest;" parent="L89QSRtBMgVIycEGR7nq-9" vertex="1"><mxGeometry y="260" width="180" height="30" as="geometry"/></mxCell><mxCell id="L89QSRtBMgVIycEGR7nq-38" value="FK" style="shape=partialRectangle;connectable=0;fillColor=none;top=0;left=0;bottom=0;right=0;editable=1;overflow=hidden;" parent="L89QSRtBMgVIycEGR7nq-37" vertex="1"><mxGeometry width="30" height="30" as="geometry"><mxRectangle width="30" height="30" as="alternateBounds"/></mxGeometry></mxCell><mxCell id="L89QSRtBMgVIycEGR7nq-39" value="equipment_size_id" style="shape=partialRectangle;connectable=0;fillColor=none;top=0;left=0;bottom=0;right=0;align=left;spacingLeft=6;overflow=hidden;" parent="L89QSRtBMgVIycEGR7nq-37" vertex="1"><mxGeometry x="30" width="150" height="30" as="geometry"><mxRectangle width="150" height="30" as="alternateBounds"/></mxGeometry></mxCell><mxCell id="L89QSRtBMgVIycEGR7nq-40" value="" style="shape=partialRectangle;collapsible=0;dropTarget=0;pointerEvents=0;fillColor=none;top=0;left=0;bottom=0;right=0;points=[[0,0.5],[1,0.5]];portConstraint=eastwest;" parent="L89QSRtBMgVIycEGR7nq-9" vertex="1"><mxGeometry y="290" width="180" height="30" as="geometry"/></mxCell><mxCell id="L89QSRtBMgVIycEGR7nq-41" value="" style="shape=partialRectangle;connectable=0;fillColor=none;top=0;left=0;bottom=0;right=0;editable=1;overflow=hidden;" parent="L89QSRtBMgVIycEGR7nq-40" vertex="1"><mxGeometry width="30" height="30" as="geometry"><mxRectangle width="30" height="30" as="alternateBounds"/></mxGeometry></mxCell><mxCell id="L89QSRtBMgVIycEGR7nq-42" value="hardness_level" style="shape=partialRectangle;connectable=0;fillColor=none;top=0;left=0;bottom=0;right=0;align=left;spacingLeft=6;overflow=hidden;" parent="L89QSRtBMgVIycEGR7nq-40" vertex="1"><mxGeometry x="30" width="150" height="30" as="geometry"><mxRectangle width="150" height="30" as="alternateBounds"/></mxGeometry></mxCell><mxCell id="L89QSRtBMgVIycEGR7nq-43" value="" style="shape=partialRectangle;collapsible=0;dropTarget=0;pointerEvents=0;fillColor=none;top=0;left=0;bottom=0;right=0;points=[[0,0.5],[1,0.5]];portConstraint=eastwest;" parent="L89QSRtBMgVIycEGR7nq-9" vertex="1"><mxGeometry y="320" width="180" height="30" as="geometry"/></mxCell><mxCell id="L89QSRtBMgVIycEGR7nq-44" value="" style="shape=partialRectangle;connectable=0;fillColor=none;top=0;left=0;bottom=0;right=0;editable=1;overflow=hidden;" parent="L89QSRtBMgVIycEGR7nq-43" vertex="1"><mxGeometry width="30" height="30" as="geometry"><mxRectangle width="30" height="30" as="alternateBounds"/></mxGeometry></mxCell><mxCell id="L89QSRtBMgVIycEGR7nq-45" value="available" style="shape=partialRectangle;connectable=0;fillColor=none;top=0;left=0;bottom=0;right=0;align=left;spacingLeft=6;overflow=hidden;" parent="L89QSRtBMgVIycEGR7nq-43" vertex="1"><mxGeometry x="30" width="150" height="30" as="geometry"><mxRectangle width="150" height="30" as="alternateBounds"/></mxGeometry></mxCell><mxCell id="L89QSRtBMgVIycEGR7nq-46" value="" style="shape=partialRectangle;collapsible=0;dropTarget=0;pointerEvents=0;fillColor=none;top=0;left=0;bottom=0;right=0;points=[[0,0.5],[1,0.5]];portConstraint=eastwest;" parent="L89QSRtBMgVIycEGR7nq-9" vertex="1"><mxGeometry y="350" width="180" height="30" as="geometry"/></mxCell><mxCell id="L89QSRtBMgVIycEGR7nq-47" value="" style="shape=partialRectangle;connectable=0;fillColor=none;top=0;left=0;bottom=0;right=0;editable=1;overflow=hidden;" parent="L89QSRtBMgVIycEGR7nq-46" vertex="1"><mxGeometry width="30" height="30" as="geometry"><mxRectangle width="30" height="30" as="alternateBounds"/></mxGeometry></mxCell><mxCell id="L89QSRtBMgVIycEGR7nq-48" value="cost" style="shape=partialRectangle;connectable=0;fillColor=none;top=0;left=0;bottom=0;right=0;align=left;spacingLeft=6;overflow=hidden;" parent="L89QSRtBMgVIycEGR7nq-46" vertex="1"><mxGeometry x="30" width="150" height="30" as="geometry"><mxRectangle width="150" height="30" as="alternateBounds"/></mxGeometry></mxCell><mxCell id="L89QSRtBMgVIycEGR7nq-49" value="equipment_size" style="shape=table;startSize=30;container=1;collapsible=1;childLayout=tableLayout;fixedRows=1;rowLines=0;fontStyle=1;align=center;resizeLast=1;fillColor=#ffe6cc;strokeColor=#d79b00;" parent="L89QSRtBMgVIycEGR7nq-1" vertex="1"><mxGeometry x="480" y="-60" width="180" height="180" as="geometry"/></mxCell><mxCell id="L89QSRtBMgVIycEGR7nq-50" value="" style="shape=partialRectangle;collapsible=0;dropTarget=0;pointerEvents=0;fillColor=none;top=0;left=0;bottom=1;right=0;points=[[0,0.5],[1,0.5]];portConstraint=eastwest;" parent="L89QSRtBMgVIycEGR7nq-49" vertex="1"><mxGeometry y="30" width="180" height="30" as="geometry"/></mxCell><mxCell id="L89QSRtBMgVIycEGR7nq-51" value="PK" style="shape=partialRectangle;connectable=0;fillColor=none;top=0;left=0;bottom=0;right=0;fontStyle=1;overflow=hidden;" parent="L89QSRtBMgVIycEGR7nq-50" vertex="1"><mxGeometry width="30" height="30" as="geometry"><mxRectangle width="30" height="30" as="alternateBounds"/></mxGeometry></mxCell><mxCell id="L89QSRtBMgVIycEGR7nq-52" value="equipment_size_id" style="shape=partialRectangle;connectable=0;fillColor=none;top=0;left=0;bottom=0;right=0;align=left;spacingLeft=6;fontStyle=5;overflow=hidden;" parent="L89QSRtBMgVIycEGR7nq-50" vertex="1"><mxGeometry x="30" width="150" height="30" as="geometry"><mxRectangle width="150" height="30" as="alternateBounds"/></mxGeometry></mxCell><mxCell id="L89QSRtBMgVIycEGR7nq-53" value="" style="shape=partialRectangle;collapsible=0;dropTarget=0;pointerEvents=0;fillColor=none;top=0;left=0;bottom=0;right=0;points=[[0,0.5],[1,0.5]];portConstraint=eastwest;" parent="L89QSRtBMgVIycEGR7nq-49" vertex="1"><mxGeometry y="60" width="180" height="30" as="geometry"/></mxCell><mxCell id="L89QSRtBMgVIycEGR7nq-54" value="" style="shape=partialRectangle;connectable=0;fillColor=none;top=0;left=0;bottom=0;right=0;editable=1;overflow=hidden;" parent="L89QSRtBMgVIycEGR7nq-53" vertex="1"><mxGeometry width="30" height="30" as="geometry"><mxRectangle width="30" height="30" as="alternateBounds"/></mxGeometry></mxCell><mxCell id="L89QSRtBMgVIycEGR7nq-55" value="user_min_height" style="shape=partialRectangle;connectable=0;fillColor=none;top=0;left=0;bottom=0;right=0;align=left;spacingLeft=6;overflow=hidden;" parent="L89QSRtBMgVIycEGR7nq-53" vertex="1"><mxGeometry x="30" width="150" height="30" as="geometry"><mxRectangle width="150" height="30" as="alternateBounds"/></mxGeometry></mxCell><mxCell id="L89QSRtBMgVIycEGR7nq-56" value="" style="shape=partialRectangle;collapsible=0;dropTarget=0;pointerEvents=0;fillColor=none;top=0;left=0;bottom=0;right=0;points=[[0,0.5],[1,0.5]];portConstraint=eastwest;" parent="L89QSRtBMgVIycEGR7nq-49" vertex="1"><mxGeometry y="90" width="180" height="30" as="geometry"/></mxCell><mxCell id="L89QSRtBMgVIycEGR7nq-57" value="" style="shape=partialRectangle;connectable=0;fillColor=none;top=0;left=0;bottom=0;right=0;editable=1;overflow=hidden;" parent="L89QSRtBMgVIycEGR7nq-56" vertex="1"><mxGeometry width="30" height="30" as="geometry"><mxRectangle width="30" height="30" as="alternateBounds"/></mxGeometry></mxCell><mxCell id="L89QSRtBMgVIycEGR7nq-58" value="user_max_height" style="shape=partialRectangle;connectable=0;fillColor=none;top=0;left=0;bottom=0;right=0;align=left;spacingLeft=6;overflow=hidden;" parent="L89QSRtBMgVIycEGR7nq-56" vertex="1"><mxGeometry x="30" width="150" height="30" as="geometry"><mxRectangle width="150" height="30" as="alternateBounds"/></mxGeometry></mxCell><mxCell id="L89QSRtBMgVIycEGR7nq-59" value="" style="shape=partialRectangle;collapsible=0;dropTarget=0;pointerEvents=0;fillColor=none;top=0;left=0;bottom=0;right=0;points=[[0,0.5],[1,0.5]];portConstraint=eastwest;" parent="L89QSRtBMgVIycEGR7nq-49" vertex="1"><mxGeometry y="120" width="180" height="30" as="geometry"/></mxCell><mxCell id="L89QSRtBMgVIycEGR7nq-60" value="" style="shape=partialRectangle;connectable=0;fillColor=none;top=0;left=0;bottom=0;right=0;editable=1;overflow=hidden;" parent="L89QSRtBMgVIycEGR7nq-59" vertex="1"><mxGeometry width="30" height="30" as="geometry"><mxRectangle width="30" height="30" as="alternateBounds"/></mxGeometry></mxCell><mxCell id="L89QSRtBMgVIycEGR7nq-61" value="user_min_weight" style="shape=partialRectangle;connectable=0;fillColor=none;top=0;left=0;bottom=0;right=0;align=left;spacingLeft=6;overflow=hidden;" parent="L89QSRtBMgVIycEGR7nq-59" vertex="1"><mxGeometry x="30" width="150" height="30" as="geometry"><mxRectangle width="150" height="30" as="alternateBounds"/></mxGeometry></mxCell><mxCell id="L89QSRtBMgVIycEGR7nq-62" value="" style="shape=partialRectangle;collapsible=0;dropTarget=0;pointerEvents=0;fillColor=none;top=0;left=0;bottom=0;right=0;points=[[0,0.5],[1,0.5]];portConstraint=eastwest;" parent="L89QSRtBMgVIycEGR7nq-49" vertex="1"><mxGeometry y="150" width="180" height="30" as="geometry"/></mxCell><mxCell id="L89QSRtBMgVIycEGR7nq-63" value="" style="shape=partialRectangle;connectable=0;fillColor=none;top=0;left=0;bottom=0;right=0;editable=1;overflow=hidden;" parent="L89QSRtBMgVIycEGR7nq-62" vertex="1"><mxGeometry width="30" height="30" as="geometry"><mxRectangle width="30" height="30" as="alternateBounds"/></mxGeometry></mxCell><mxCell id="L89QSRtBMgVIycEGR7nq-64" value="user_max_weight" style="shape=partialRectangle;connectable=0;fillColor=none;top=0;left=0;bottom=0;right=0;align=left;spacingLeft=6;overflow=hidden;" parent="L89QSRtBMgVIycEGR7nq-62" vertex="1"><mxGeometry x="30" width="150" height="30" as="geometry"><mxRectangle width="150" height="30" as="alternateBounds"/></mxGeometry></mxCell><mxCell id="L89QSRtBMgVIycEGR7nq-65" value="" style="edgeStyle=entityRelationEdgeStyle;fontSize=12;html=1;endArrow=ERzeroToMany;startArrow=ERmandOne;rounded=0;entryX=1;entryY=0.5;entryDx=0;entryDy=0;exitX=0;exitY=0.5;exitDx=0;exitDy=0;" parent="L89QSRtBMgVIycEGR7nq-1" source="L89QSRtBMgVIycEGR7nq-3" target="L89QSRtBMgVIycEGR7nq-16" edge="1"><mxGeometry width="100" height="100" relative="1" as="geometry"><mxPoint x="400" y="-255" as="sourcePoint"/><mxPoint x="760" y="-180" as="targetPoint"/></mxGeometry></mxCell><mxCell id="L89QSRtBMgVIycEGR7nq-66" value="" style="edgeStyle=entityRelationEdgeStyle;fontSize=12;html=1;endArrow=ERoneToMany;startArrow=ERmandOne;rounded=0;entryX=1.011;entryY=0.733;entryDx=0;entryDy=0;entryPerimeter=0;exitX=0;exitY=0.5;exitDx=0;exitDy=0;" parent="L89QSRtBMgVIycEGR7nq-1" source="L89QSRtBMgVIycEGR7nq-50" target="L89QSRtBMgVIycEGR7nq-37" edge="1"><mxGeometry width="100" height="100" relative="1" as="geometry"><mxPoint x="510" y="180" as="sourcePoint"/><mxPoint x="1060" y="40" as="targetPoint"/></mxGeometry></mxCell><mxCell id="L89QSRtBMgVIycEGR7nq-67" value="user" style="shape=table;startSize=30;container=1;collapsible=1;childLayout=tableLayout;fixedRows=1;rowLines=0;fontStyle=1;align=center;resizeLast=1;rounded=0;sketch=0;flipH=1;flipV=0;perimeterSpacing=0;shadow=0;swimlaneLine=1;fontSize=16;fillColor=#ffe6cc;strokeColor=#d79b00;" parent="L89QSRtBMgVIycEGR7nq-1" vertex="1"><mxGeometry x="40" y="470" width="300" height="370" as="geometry"/></mxCell><mxCell id="L89QSRtBMgVIycEGR7nq-68" value="" style="shape=partialRectangle;collapsible=0;dropTarget=0;pointerEvents=0;fillColor=none;top=0;left=0;bottom=0;right=0;points=[[0,0.5],[1,0.5]];portConstraint=eastwest;rounded=0;sketch=0;fontColor=#5C5C5C;strokeColor=#006658;" parent="L89QSRtBMgVIycEGR7nq-67" vertex="1"><mxGeometry y="30" width="300" height="30" as="geometry"/></mxCell><mxCell id="L89QSRtBMgVIycEGR7nq-69" value="PK, FK" style="shape=partialRectangle;connectable=0;fillColor=none;top=0;left=0;bottom=0;right=0;fontStyle=1;overflow=hidden;rounded=0;sketch=0;fontColor=#5C5C5C;strokeColor=#006658;fontSize=14;" parent="L89QSRtBMgVIycEGR7nq-68" vertex="1"><mxGeometry width="70" height="30" as="geometry"><mxRectangle width="70" height="30" as="alternateBounds"/></mxGeometry></mxCell><mxCell id="L89QSRtBMgVIycEGR7nq-70" value="user_id" style="shape=partialRectangle;connectable=0;fillColor=none;top=0;left=0;bottom=0;right=0;align=left;spacingLeft=6;fontStyle=5;overflow=hidden;rounded=0;sketch=0;fontColor=#5C5C5C;strokeColor=#006658;fontSize=14;" parent="L89QSRtBMgVIycEGR7nq-68" vertex="1"><mxGeometry x="70" width="230" height="30" as="geometry"><mxRectangle width="230" height="30" as="alternateBounds"/></mxGeometry></mxCell><mxCell id="L89QSRtBMgVIycEGR7nq-71" value="" style="shape=partialRectangle;collapsible=0;dropTarget=0;pointerEvents=0;fillColor=none;top=0;left=0;bottom=1;right=0;points=[[0,0.5],[1,0.5]];portConstraint=eastwest;rounded=0;sketch=0;fontColor=#5C5C5C;strokeColor=#006658;" parent="L89QSRtBMgVIycEGR7nq-67" vertex="1"><mxGeometry y="60" width="300" height="20" as="geometry"/></mxCell><mxCell id="L89QSRtBMgVIycEGR7nq-72" value="" style="shape=partialRectangle;connectable=0;fillColor=none;top=0;left=0;bottom=0;right=0;fontStyle=1;overflow=hidden;rounded=0;sketch=0;fontColor=#5C5C5C;strokeColor=#006658;" parent="L89QSRtBMgVIycEGR7nq-71" vertex="1"><mxGeometry width="70" height="20" as="geometry"><mxRectangle width="70" height="20" as="alternateBounds"/></mxGeometry></mxCell><mxCell id="L89QSRtBMgVIycEGR7nq-73" value="" style="shape=partialRectangle;connectable=0;fillColor=none;top=0;left=0;bottom=0;right=0;align=left;spacingLeft=6;fontStyle=5;overflow=hidden;rounded=0;sketch=0;fontColor=#5C5C5C;strokeColor=#006658;" parent="L89QSRtBMgVIycEGR7nq-71" vertex="1"><mxGeometry x="70" width="230" height="20" as="geometry"><mxRectangle width="230" height="20" as="alternateBounds"/></mxGeometry></mxCell><mxCell id="L89QSRtBMgVIycEGR7nq-74" value="" style="shape=partialRectangle;collapsible=0;dropTarget=0;pointerEvents=0;fillColor=none;top=0;left=0;bottom=0;right=0;points=[[0,0.5],[1,0.5]];portConstraint=eastwest;rounded=0;sketch=0;fontColor=#5C5C5C;strokeColor=#006658;" parent="L89QSRtBMgVIycEGR7nq-67" vertex="1"><mxGeometry y="80" width="300" height="20" as="geometry"/></mxCell><mxCell id="L89QSRtBMgVIycEGR7nq-75" value="" style="shape=partialRectangle;connectable=0;fillColor=none;top=0;left=0;bottom=0;right=0;editable=1;overflow=hidden;rounded=0;sketch=0;fontColor=#5C5C5C;strokeColor=#006658;fontSize=14;" parent="L89QSRtBMgVIycEGR7nq-74" vertex="1"><mxGeometry width="70" height="20" as="geometry"><mxRectangle width="70" height="20" as="alternateBounds"/></mxGeometry></mxCell><mxCell id="L89QSRtBMgVIycEGR7nq-76" value="username" style="shape=partialRectangle;connectable=0;fillColor=none;top=0;left=0;bottom=0;right=0;align=left;spacingLeft=6;overflow=hidden;rounded=0;sketch=0;fontColor=#5C5C5C;strokeColor=#006658;fontSize=14;" parent="L89QSRtBMgVIycEGR7nq-74" vertex="1"><mxGeometry x="70" width="230" height="20" as="geometry"><mxRectangle width="230" height="20" as="alternateBounds"/></mxGeometry></mxCell><mxCell id="L89QSRtBMgVIycEGR7nq-77" value="" style="shape=partialRectangle;collapsible=0;dropTarget=0;pointerEvents=0;fillColor=none;top=0;left=0;bottom=0;right=0;points=[[0,0.5],[1,0.5]];portConstraint=eastwest;rounded=0;sketch=0;fontColor=#5C5C5C;strokeColor=#006658;" parent="L89QSRtBMgVIycEGR7nq-67" vertex="1"><mxGeometry y="100" width="300" height="30" as="geometry"/></mxCell><mxCell id="L89QSRtBMgVIycEGR7nq-78" value="" style="shape=partialRectangle;connectable=0;fillColor=none;top=0;left=0;bottom=0;right=0;editable=1;overflow=hidden;rounded=0;sketch=0;fontColor=#5C5C5C;strokeColor=#006658;" parent="L89QSRtBMgVIycEGR7nq-77" vertex="1"><mxGeometry width="70" height="30" as="geometry"><mxRectangle width="70" height="30" as="alternateBounds"/></mxGeometry></mxCell><mxCell id="L89QSRtBMgVIycEGR7nq-79" value="password" style="shape=partialRectangle;connectable=0;fillColor=none;top=0;left=0;bottom=0;right=0;align=left;spacingLeft=6;overflow=hidden;rounded=0;sketch=0;fontColor=#5C5C5C;strokeColor=#006658;fontSize=14;" parent="L89QSRtBMgVIycEGR7nq-77" vertex="1"><mxGeometry x="70" width="230" height="30" as="geometry"><mxRectangle width="230" height="30" as="alternateBounds"/></mxGeometry></mxCell><mxCell id="L89QSRtBMgVIycEGR7nq-80" value="" style="shape=partialRectangle;collapsible=0;dropTarget=0;pointerEvents=0;fillColor=none;top=0;left=0;bottom=0;right=0;points=[[0,0.5],[1,0.5]];portConstraint=eastwest;rounded=0;shadow=0;sketch=0;fontSize=14;fontColor=#5C5C5C;strokeColor=default;" parent="L89QSRtBMgVIycEGR7nq-67" vertex="1"><mxGeometry y="130" width="300" height="30" as="geometry"/></mxCell><mxCell id="L89QSRtBMgVIycEGR7nq-81" value="" style="shape=partialRectangle;connectable=0;fillColor=none;top=0;left=0;bottom=0;right=0;editable=1;overflow=hidden;rounded=0;shadow=0;sketch=0;fontSize=14;fontColor=#5C5C5C;strokeColor=default;" parent="L89QSRtBMgVIycEGR7nq-80" vertex="1"><mxGeometry width="70" height="30" as="geometry"><mxRectangle width="70" height="30" as="alternateBounds"/></mxGeometry></mxCell><mxCell id="L89QSRtBMgVIycEGR7nq-82" value="email" style="shape=partialRectangle;connectable=0;fillColor=none;top=0;left=0;bottom=0;right=0;align=left;spacingLeft=6;overflow=hidden;rounded=0;shadow=0;sketch=0;fontSize=14;fontColor=#5C5C5C;strokeColor=default;" parent="L89QSRtBMgVIycEGR7nq-80" vertex="1"><mxGeometry x="70" width="230" height="30" as="geometry"><mxRectangle width="230" height="30" as="alternateBounds"/></mxGeometry></mxCell><mxCell id="L89QSRtBMgVIycEGR7nq-83" value="" style="shape=partialRectangle;collapsible=0;dropTarget=0;pointerEvents=0;fillColor=none;top=0;left=0;bottom=0;right=0;points=[[0,0.5],[1,0.5]];portConstraint=eastwest;rounded=0;shadow=0;sketch=0;fontSize=14;fontColor=#5C5C5C;strokeColor=default;" parent="L89QSRtBMgVIycEGR7nq-67" vertex="1"><mxGeometry y="160" width="300" height="30" as="geometry"/></mxCell><mxCell id="L89QSRtBMgVIycEGR7nq-84" value="" style="shape=partialRectangle;connectable=0;fillColor=none;top=0;left=0;bottom=0;right=0;fontStyle=0;overflow=hidden;rounded=0;shadow=0;sketch=0;fontSize=14;fontColor=#5C5C5C;strokeColor=default;" parent="L89QSRtBMgVIycEGR7nq-83" vertex="1"><mxGeometry width="70" height="30" as="geometry"><mxRectangle width="70" height="30" as="alternateBounds"/></mxGeometry></mxCell><mxCell id="L89QSRtBMgVIycEGR7nq-85" value="first_name" style="shape=partialRectangle;connectable=0;fillColor=none;top=0;left=0;bottom=0;right=0;align=left;spacingLeft=6;fontStyle=0;overflow=hidden;rounded=0;shadow=0;sketch=0;fontSize=14;fontColor=#5C5C5C;strokeColor=default;" parent="L89QSRtBMgVIycEGR7nq-83" vertex="1"><mxGeometry x="70" width="230" height="30" as="geometry"><mxRectangle width="230" height="30" as="alternateBounds"/></mxGeometry></mxCell><mxCell id="L89QSRtBMgVIycEGR7nq-86" value="" style="shape=partialRectangle;collapsible=0;dropTarget=0;pointerEvents=0;fillColor=none;top=0;left=0;bottom=0;right=0;points=[[0,0.5],[1,0.5]];portConstraint=eastwest;rounded=0;shadow=0;sketch=0;fontSize=14;fontColor=#5C5C5C;strokeColor=default;" parent="L89QSRtBMgVIycEGR7nq-67" vertex="1"><mxGeometry y="190" width="300" height="30" as="geometry"/></mxCell><mxCell id="L89QSRtBMgVIycEGR7nq-87" value="" style="shape=partialRectangle;connectable=0;fillColor=none;top=0;left=0;bottom=0;right=0;editable=1;overflow=hidden;rounded=0;shadow=0;sketch=0;fontSize=14;fontColor=#5C5C5C;strokeColor=default;" parent="L89QSRtBMgVIycEGR7nq-86" vertex="1"><mxGeometry width="70" height="30" as="geometry"><mxRectangle width="70" height="30" as="alternateBounds"/></mxGeometry></mxCell><mxCell id="L89QSRtBMgVIycEGR7nq-88" value="last_name" style="shape=partialRectangle;connectable=0;fillColor=none;top=0;left=0;bottom=0;right=0;align=left;spacingLeft=6;overflow=hidden;rounded=0;shadow=0;sketch=0;fontSize=14;fontColor=#5C5C5C;strokeColor=default;" parent="L89QSRtBMgVIycEGR7nq-86" vertex="1"><mxGeometry x="70" width="230" height="30" as="geometry"><mxRectangle width="230" height="30" as="alternateBounds"/></mxGeometry></mxCell><mxCell id="L89QSRtBMgVIycEGR7nq-89" value="" style="shape=partialRectangle;collapsible=0;dropTarget=0;pointerEvents=0;fillColor=none;top=0;left=0;bottom=0;right=0;points=[[0,0.5],[1,0.5]];portConstraint=eastwest;" parent="L89QSRtBMgVIycEGR7nq-67" vertex="1"><mxGeometry y="220" width="300" height="30" as="geometry"/></mxCell><mxCell id="L89QSRtBMgVIycEGR7nq-90" value="" style="shape=partialRectangle;connectable=0;fillColor=none;top=0;left=0;bottom=0;right=0;editable=1;overflow=hidden;" parent="L89QSRtBMgVIycEGR7nq-89" vertex="1"><mxGeometry width="70" height="30" as="geometry"><mxRectangle width="70" height="30" as="alternateBounds"/></mxGeometry></mxCell><mxCell id="L89QSRtBMgVIycEGR7nq-91" value="gender" style="shape=partialRectangle;connectable=0;fillColor=none;top=0;left=0;bottom=0;right=0;align=left;spacingLeft=6;overflow=hidden;" parent="L89QSRtBMgVIycEGR7nq-89" vertex="1"><mxGeometry x="70" width="230" height="30" as="geometry"><mxRectangle width="230" height="30" as="alternateBounds"/></mxGeometry></mxCell><mxCell id="L89QSRtBMgVIycEGR7nq-92" value="" style="shape=partialRectangle;collapsible=0;dropTarget=0;pointerEvents=0;fillColor=none;top=0;left=0;bottom=0;right=0;points=[[0,0.5],[1,0.5]];portConstraint=eastwest;" parent="L89QSRtBMgVIycEGR7nq-67" vertex="1"><mxGeometry y="250" width="300" height="30" as="geometry"/></mxCell><mxCell id="L89QSRtBMgVIycEGR7nq-93" value="" style="shape=partialRectangle;connectable=0;fillColor=none;top=0;left=0;bottom=0;right=0;editable=1;overflow=hidden;" parent="L89QSRtBMgVIycEGR7nq-92" vertex="1"><mxGeometry width="70" height="30" as="geometry"><mxRectangle width="70" height="30" as="alternateBounds"/></mxGeometry></mxCell><mxCell id="L89QSRtBMgVIycEGR7nq-94" value="user_height" style="shape=partialRectangle;connectable=0;fillColor=none;top=0;left=0;bottom=0;right=0;align=left;spacingLeft=6;overflow=hidden;" parent="L89QSRtBMgVIycEGR7nq-92" vertex="1"><mxGeometry x="70" width="230" height="30" as="geometry"><mxRectangle width="230" height="30" as="alternateBounds"/></mxGeometry></mxCell><mxCell id="L89QSRtBMgVIycEGR7nq-95" value="" style="shape=partialRectangle;collapsible=0;dropTarget=0;pointerEvents=0;fillColor=none;top=0;left=0;bottom=0;right=0;points=[[0,0.5],[1,0.5]];portConstraint=eastwest;" parent="L89QSRtBMgVIycEGR7nq-67" vertex="1"><mxGeometry y="280" width="300" height="30" as="geometry"/></mxCell><mxCell id="L89QSRtBMgVIycEGR7nq-96" value="" style="shape=partialRectangle;connectable=0;fillColor=none;top=0;left=0;bottom=0;right=0;editable=1;overflow=hidden;" parent="L89QSRtBMgVIycEGR7nq-95" vertex="1"><mxGeometry width="70" height="30" as="geometry"><mxRectangle width="70" height="30" as="alternateBounds"/></mxGeometry></mxCell><mxCell id="L89QSRtBMgVIycEGR7nq-97" value="user_weight" style="shape=partialRectangle;connectable=0;fillColor=none;top=0;left=0;bottom=0;right=0;align=left;spacingLeft=6;overflow=hidden;" parent="L89QSRtBMgVIycEGR7nq-95" vertex="1"><mxGeometry x="70" width="230" height="30" as="geometry"><mxRectangle width="230" height="30" as="alternateBounds"/></mxGeometry></mxCell><mxCell id="L89QSRtBMgVIycEGR7nq-98" value="" style="shape=partialRectangle;collapsible=0;dropTarget=0;pointerEvents=0;fillColor=none;top=0;left=0;bottom=0;right=0;points=[[0,0.5],[1,0.5]];portConstraint=eastwest;" parent="L89QSRtBMgVIycEGR7nq-67" vertex="1"><mxGeometry y="310" width="300" height="30" as="geometry"/></mxCell><mxCell id="L89QSRtBMgVIycEGR7nq-99" value="" style="shape=partialRectangle;connectable=0;fillColor=none;top=0;left=0;bottom=0;right=0;editable=1;overflow=hidden;" parent="L89QSRtBMgVIycEGR7nq-98" vertex="1"><mxGeometry width="70" height="30" as="geometry"><mxRectangle width="70" height="30" as="alternateBounds"/></mxGeometry></mxCell><mxCell id="L89QSRtBMgVIycEGR7nq-100" value="boot_size" style="shape=partialRectangle;connectable=0;fillColor=none;top=0;left=0;bottom=0;right=0;align=left;spacingLeft=6;overflow=hidden;" parent="L89QSRtBMgVIycEGR7nq-98" vertex="1"><mxGeometry x="70" width="230" height="30" as="geometry"><mxRectangle width="230" height="30" as="alternateBounds"/></mxGeometry></mxCell><mxCell id="L89QSRtBMgVIycEGR7nq-101" value="" style="shape=partialRectangle;collapsible=0;dropTarget=0;pointerEvents=0;fillColor=none;top=0;left=0;bottom=0;right=0;points=[[0,0.5],[1,0.5]];portConstraint=eastwest;rounded=0;shadow=0;sketch=0;fontSize=14;fontColor=#5C5C5C;strokeColor=default;" parent="L89QSRtBMgVIycEGR7nq-67" vertex="1"><mxGeometry y="340" width="300" height="30" as="geometry"/></mxCell><mxCell id="L89QSRtBMgVIycEGR7nq-102" value="FK" style="shape=partialRectangle;connectable=0;fillColor=none;top=0;left=0;bottom=0;right=0;editable=1;overflow=hidden;rounded=0;shadow=0;sketch=0;fontSize=14;fontColor=#5C5C5C;strokeColor=default;" parent="L89QSRtBMgVIycEGR7nq-101" vertex="1"><mxGeometry width="70" height="30" as="geometry"><mxRectangle width="70" height="30" as="alternateBounds"/></mxGeometry></mxCell><mxCell id="L89QSRtBMgVIycEGR7nq-103" value="role_id" style="shape=partialRectangle;connectable=0;fillColor=none;top=0;left=0;bottom=0;right=0;align=left;spacingLeft=6;overflow=hidden;rounded=0;shadow=0;sketch=0;fontSize=14;fontColor=#5C5C5C;strokeColor=default;" parent="L89QSRtBMgVIycEGR7nq-101" vertex="1"><mxGeometry x="70" width="230" height="30" as="geometry"><mxRectangle width="230" height="30" as="alternateBounds"/></mxGeometry></mxCell><mxCell id="L89QSRtBMgVIycEGR7nq-104" value="action" style="shape=table;startSize=20;container=1;collapsible=1;childLayout=tableLayout;fixedRows=1;rowLines=0;fontStyle=1;align=center;resizeLast=1;rounded=0;shadow=0;sketch=0;fontSize=14;fillColor=#ffe6cc;strokeColor=#d79b00;" parent="L89QSRtBMgVIycEGR7nq-1" vertex="1"><mxGeometry x="620" y="950" width="180" height="80" as="geometry"/></mxCell><mxCell id="L89QSRtBMgVIycEGR7nq-105" value="" style="shape=partialRectangle;collapsible=0;dropTarget=0;pointerEvents=0;fillColor=none;top=0;left=0;bottom=1;right=0;points=[[0,0.5],[1,0.5]];portConstraint=eastwest;rounded=0;shadow=0;sketch=0;fontSize=14;fontColor=#5C5C5C;strokeColor=default;" parent="L89QSRtBMgVIycEGR7nq-104" vertex="1"><mxGeometry y="20" width="180" height="30" as="geometry"/></mxCell><mxCell id="L89QSRtBMgVIycEGR7nq-106" value="PK" style="shape=partialRectangle;connectable=0;fillColor=none;top=0;left=0;bottom=0;right=0;fontStyle=1;overflow=hidden;rounded=0;shadow=0;sketch=0;fontSize=14;fontColor=#5C5C5C;strokeColor=default;" parent="L89QSRtBMgVIycEGR7nq-105" vertex="1"><mxGeometry width="30" height="30" as="geometry"><mxRectangle width="30" height="30" as="alternateBounds"/></mxGeometry></mxCell><mxCell id="L89QSRtBMgVIycEGR7nq-107" value="action_id" style="shape=partialRectangle;connectable=0;fillColor=none;top=0;left=0;bottom=0;right=0;align=left;spacingLeft=6;fontStyle=5;overflow=hidden;rounded=0;shadow=0;sketch=0;fontSize=14;fontColor=#5C5C5C;strokeColor=default;" parent="L89QSRtBMgVIycEGR7nq-105" vertex="1"><mxGeometry x="30" width="150" height="30" as="geometry"><mxRectangle width="150" height="30" as="alternateBounds"/></mxGeometry></mxCell><mxCell id="L89QSRtBMgVIycEGR7nq-108" value="" style="shape=partialRectangle;collapsible=0;dropTarget=0;pointerEvents=0;fillColor=none;top=0;left=0;bottom=0;right=0;points=[[0,0.5],[1,0.5]];portConstraint=eastwest;rounded=0;shadow=0;sketch=0;fontSize=14;fontColor=#5C5C5C;strokeColor=default;" parent="L89QSRtBMgVIycEGR7nq-104" vertex="1"><mxGeometry y="50" width="180" height="30" as="geometry"/></mxCell><mxCell id="L89QSRtBMgVIycEGR7nq-109" value="" style="shape=partialRectangle;connectable=0;fillColor=none;top=0;left=0;bottom=0;right=0;editable=1;overflow=hidden;rounded=0;shadow=0;sketch=0;fontSize=14;fontColor=#5C5C5C;strokeColor=default;" parent="L89QSRtBMgVIycEGR7nq-108" vertex="1"><mxGeometry width="30" height="30" as="geometry"><mxRectangle width="30" height="30" as="alternateBounds"/></mxGeometry></mxCell><mxCell id="L89QSRtBMgVIycEGR7nq-110" value="action_name" style="shape=partialRectangle;connectable=0;fillColor=none;top=0;left=0;bottom=0;right=0;align=left;spacingLeft=6;overflow=hidden;rounded=0;shadow=0;sketch=0;fontSize=14;fontColor=#5C5C5C;strokeColor=default;" parent="L89QSRtBMgVIycEGR7nq-108" vertex="1"><mxGeometry x="30" width="150" height="30" as="geometry"><mxRectangle width="150" height="30" as="alternateBounds"/></mxGeometry></mxCell><mxCell id="L89QSRtBMgVIycEGR7nq-111" value="" style="edgeStyle=entityRelationEdgeStyle;fontSize=12;html=1;endArrow=ERzeroToMany;startArrow=ERmandOne;rounded=1;sketch=0;fontColor=#5C5C5C;strokeColor=#000000;fillColor=#21C0A5;curved=0;entryX=0;entryY=0.5;entryDx=0;entryDy=0;" parent="L89QSRtBMgVIycEGR7nq-1" source="L89QSRtBMgVIycEGR7nq-105" target="L89QSRtBMgVIycEGR7nq-118" edge="1"><mxGeometry width="100" height="100" relative="1" as="geometry"><mxPoint x="730" y="535" as="sourcePoint"/><mxPoint x="1050" y="500" as="targetPoint"/></mxGeometry></mxCell><mxCell id="L89QSRtBMgVIycEGR7nq-112" value="" style="shape=partialRectangle;collapsible=0;dropTarget=0;pointerEvents=0;fillColor=none;top=0;left=0;bottom=0;right=0;points=[[0,0.5],[1,0.5]];portConstraint=eastwest;rounded=0;shadow=0;sketch=0;fontSize=14;fontColor=#5C5C5C;strokeColor=default;" parent="L89QSRtBMgVIycEGR7nq-1" vertex="1"><mxGeometry x="80" y="570" width="300" height="30" as="geometry"/></mxCell><mxCell id="L89QSRtBMgVIycEGR7nq-113" value="" style="shape=partialRectangle;connectable=0;fillColor=none;top=0;left=0;bottom=0;right=0;editable=1;overflow=hidden;rounded=0;shadow=0;sketch=0;fontSize=14;fontColor=#5C5C5C;strokeColor=default;" parent="L89QSRtBMgVIycEGR7nq-112" vertex="1"><mxGeometry width="70" height="30" as="geometry"><mxRectangle width="70" height="30" as="alternateBounds"/></mxGeometry></mxCell><mxCell id="L89QSRtBMgVIycEGR7nq-114" value="role_action_link" style="shape=table;startSize=30;container=1;collapsible=1;childLayout=tableLayout;fixedRows=1;rowLines=0;fontStyle=1;align=center;resizeLast=1;rounded=0;shadow=0;sketch=0;fontSize=14;fillColor=#ffe6cc;strokeColor=#d79b00;" parent="L89QSRtBMgVIycEGR7nq-1" vertex="1"><mxGeometry x="850" y="790" width="250" height="90" as="geometry"/></mxCell><mxCell id="L89QSRtBMgVIycEGR7nq-115" value="" style="shape=partialRectangle;collapsible=0;dropTarget=0;pointerEvents=0;fillColor=none;top=0;left=0;bottom=1;right=0;points=[[0,0.5],[1,0.5]];portConstraint=eastwest;rounded=0;shadow=0;sketch=0;fontSize=14;fontColor=#5C5C5C;strokeColor=default;" parent="L89QSRtBMgVIycEGR7nq-114" vertex="1"><mxGeometry y="30" width="250" height="30" as="geometry"/></mxCell><mxCell id="L89QSRtBMgVIycEGR7nq-116" value="PK" style="shape=partialRectangle;connectable=0;fillColor=none;top=0;left=0;bottom=0;right=0;fontStyle=1;overflow=hidden;rounded=0;shadow=0;sketch=0;fontSize=14;fontColor=#5C5C5C;strokeColor=default;" parent="L89QSRtBMgVIycEGR7nq-115" vertex="1"><mxGeometry width="70" height="30" as="geometry"><mxRectangle width="70" height="30" as="alternateBounds"/></mxGeometry></mxCell><mxCell id="L89QSRtBMgVIycEGR7nq-117" value="role_id" style="shape=partialRectangle;connectable=0;fillColor=none;top=0;left=0;bottom=0;right=0;align=left;spacingLeft=6;fontStyle=5;overflow=hidden;rounded=0;shadow=0;sketch=0;fontSize=14;fontColor=#5C5C5C;strokeColor=default;" parent="L89QSRtBMgVIycEGR7nq-115" vertex="1"><mxGeometry x="70" width="180" height="30" as="geometry"><mxRectangle width="180" height="30" as="alternateBounds"/></mxGeometry></mxCell><mxCell id="L89QSRtBMgVIycEGR7nq-118" value="" style="shape=partialRectangle;collapsible=0;dropTarget=0;pointerEvents=0;fillColor=none;top=0;left=0;bottom=0;right=0;points=[[0,0.5],[1,0.5]];portConstraint=eastwest;rounded=0;shadow=0;sketch=0;fontSize=14;fontColor=none;strokeColor=default;" parent="L89QSRtBMgVIycEGR7nq-114" vertex="1"><mxGeometry y="60" width="250" height="30" as="geometry"/></mxCell><mxCell id="L89QSRtBMgVIycEGR7nq-119" value="FK" style="shape=partialRectangle;connectable=0;fillColor=none;top=0;left=0;bottom=0;right=0;editable=1;overflow=hidden;rounded=0;shadow=0;sketch=0;fontSize=14;fontColor=none;strokeColor=default;" parent="L89QSRtBMgVIycEGR7nq-118" vertex="1"><mxGeometry width="70" height="30" as="geometry"><mxRectangle width="70" height="30" as="alternateBounds"/></mxGeometry></mxCell><mxCell id="L89QSRtBMgVIycEGR7nq-120" value="action_id" style="shape=partialRectangle;connectable=0;fillColor=none;top=0;left=0;bottom=0;right=0;align=left;spacingLeft=6;overflow=hidden;rounded=0;shadow=0;sketch=0;fontSize=14;fontColor=none;strokeColor=default;" parent="L89QSRtBMgVIycEGR7nq-118" vertex="1"><mxGeometry x="70" width="180" height="30" as="geometry"><mxRectangle width="180" height="30" as="alternateBounds"/></mxGeometry></mxCell><mxCell id="L89QSRtBMgVIycEGR7nq-121" value="role" style="shape=table;startSize=30;container=1;collapsible=1;childLayout=tableLayout;fixedRows=1;rowLines=0;fontStyle=1;align=center;resizeLast=1;fontSize=14;fillColor=#ffe6cc;strokeColor=#d79b00;" parent="L89QSRtBMgVIycEGR7nq-1" vertex="1"><mxGeometry x="470" y="780" width="260" height="90" as="geometry"/></mxCell><mxCell id="L89QSRtBMgVIycEGR7nq-122" value="" style="shape=partialRectangle;collapsible=0;dropTarget=0;pointerEvents=0;fillColor=none;top=0;left=0;bottom=1;right=0;points=[[0,0.5],[1,0.5]];portConstraint=eastwest;fontSize=14;" parent="L89QSRtBMgVIycEGR7nq-121" vertex="1"><mxGeometry y="30" width="260" height="40" as="geometry"/></mxCell><mxCell id="L89QSRtBMgVIycEGR7nq-123" value="PK, FK" style="shape=partialRectangle;connectable=0;fillColor=none;top=0;left=0;bottom=0;right=0;fontStyle=1;overflow=hidden;fontSize=14;" parent="L89QSRtBMgVIycEGR7nq-122" vertex="1"><mxGeometry width="70" height="40" as="geometry"><mxRectangle width="70" height="40" as="alternateBounds"/></mxGeometry></mxCell><mxCell id="L89QSRtBMgVIycEGR7nq-124" value="role_id" style="shape=partialRectangle;connectable=0;fillColor=none;top=0;left=0;bottom=0;right=0;align=left;spacingLeft=6;fontStyle=5;overflow=hidden;fontSize=14;" parent="L89QSRtBMgVIycEGR7nq-122" vertex="1"><mxGeometry x="70" width="190" height="40" as="geometry"><mxRectangle width="190" height="40" as="alternateBounds"/></mxGeometry></mxCell><mxCell id="L89QSRtBMgVIycEGR7nq-125" value="" style="shape=partialRectangle;collapsible=0;dropTarget=0;pointerEvents=0;fillColor=none;top=0;left=0;bottom=0;right=0;points=[[0,0.5],[1,0.5]];portConstraint=eastwest;fontSize=14;" parent="L89QSRtBMgVIycEGR7nq-121" vertex="1"><mxGeometry y="70" width="260" height="20" as="geometry"/></mxCell><mxCell id="L89QSRtBMgVIycEGR7nq-126" value="" style="shape=partialRectangle;connectable=0;fillColor=none;top=0;left=0;bottom=0;right=0;editable=1;overflow=hidden;fontSize=14;" parent="L89QSRtBMgVIycEGR7nq-125" vertex="1"><mxGeometry width="70" height="20" as="geometry"><mxRectangle width="70" height="20" as="alternateBounds"/></mxGeometry></mxCell><mxCell id="L89QSRtBMgVIycEGR7nq-127" value="role_name" style="shape=partialRectangle;connectable=0;fillColor=none;top=0;left=0;bottom=0;right=0;align=left;spacingLeft=6;overflow=hidden;fontSize=14;" parent="L89QSRtBMgVIycEGR7nq-125" vertex="1"><mxGeometry x="70" width="190" height="20" as="geometry"><mxRectangle width="190" height="20" as="alternateBounds"/></mxGeometry></mxCell><mxCell id="L89QSRtBMgVIycEGR7nq-128" value="" style="edgeStyle=orthogonalEdgeStyle;fontSize=12;html=1;endArrow=ERmandOne;startArrow=ERmandOne;rounded=0;entryX=0;entryY=0.5;entryDx=0;entryDy=0;exitX=1;exitY=0.5;exitDx=0;exitDy=0;" parent="L89QSRtBMgVIycEGR7nq-1" source="L89QSRtBMgVIycEGR7nq-101" target="L89QSRtBMgVIycEGR7nq-122" edge="1"><mxGeometry width="100" height="100" relative="1" as="geometry"><mxPoint x="384" y="675" as="sourcePoint"/><mxPoint x="710" y="620" as="targetPoint"/></mxGeometry></mxCell><mxCell id="L89QSRtBMgVIycEGR7nq-129" value="cart" style="shape=table;startSize=30;container=1;collapsible=1;childLayout=tableLayout;fixedRows=1;rowLines=0;fontStyle=1;align=center;resizeLast=1;fillColor=#ffe6cc;strokeColor=#d79b00;" parent="L89QSRtBMgVIycEGR7nq-1" vertex="1"><mxGeometry x="-250" y="400" width="180" height="120.00000000000045" as="geometry"/></mxCell><mxCell id="L89QSRtBMgVIycEGR7nq-130" value="" style="shape=partialRectangle;collapsible=0;dropTarget=0;pointerEvents=0;fillColor=none;top=0;left=0;bottom=1;right=0;points=[[0,0.5],[1,0.5]];portConstraint=eastwest;" parent="L89QSRtBMgVIycEGR7nq-129" vertex="1"><mxGeometry y="30" width="180" height="30" as="geometry"/></mxCell><mxCell id="L89QSRtBMgVIycEGR7nq-131" value="PK" style="shape=partialRectangle;connectable=0;fillColor=none;top=0;left=0;bottom=0;right=0;fontStyle=1;overflow=hidden;" parent="L89QSRtBMgVIycEGR7nq-130" vertex="1"><mxGeometry width="30" height="30" as="geometry"><mxRectangle width="30" height="30" as="alternateBounds"/></mxGeometry></mxCell><mxCell id="L89QSRtBMgVIycEGR7nq-132" value="cart_id" style="shape=partialRectangle;connectable=0;fillColor=none;top=0;left=0;bottom=0;right=0;align=left;spacingLeft=6;fontStyle=5;overflow=hidden;" parent="L89QSRtBMgVIycEGR7nq-130" vertex="1"><mxGeometry x="30" width="150" height="30" as="geometry"><mxRectangle width="150" height="30" as="alternateBounds"/></mxGeometry></mxCell><mxCell id="L89QSRtBMgVIycEGR7nq-133" value="" style="shape=partialRectangle;collapsible=0;dropTarget=0;pointerEvents=0;fillColor=none;top=0;left=0;bottom=0;right=0;points=[[0,0.5],[1,0.5]];portConstraint=eastwest;" parent="L89QSRtBMgVIycEGR7nq-129" vertex="1"><mxGeometry y="60" width="180" height="30" as="geometry"/></mxCell><mxCell id="L89QSRtBMgVIycEGR7nq-134" value="" style="shape=partialRectangle;connectable=0;fillColor=none;top=0;left=0;bottom=0;right=0;editable=1;overflow=hidden;" parent="L89QSRtBMgVIycEGR7nq-133" vertex="1"><mxGeometry width="30" height="30" as="geometry"><mxRectangle width="30" height="30" as="alternateBounds"/></mxGeometry></mxCell><mxCell id="L89QSRtBMgVIycEGR7nq-135" value="start_reservation_date" style="shape=partialRectangle;connectable=0;fillColor=none;top=0;left=0;bottom=0;right=0;align=left;spacingLeft=6;overflow=hidden;" parent="L89QSRtBMgVIycEGR7nq-133" vertex="1"><mxGeometry x="30" width="150" height="30" as="geometry"><mxRectangle width="150" height="30" as="alternateBounds"/></mxGeometry></mxCell><mxCell id="L89QSRtBMgVIycEGR7nq-136" value="" style="shape=partialRectangle;collapsible=0;dropTarget=0;pointerEvents=0;fillColor=none;top=0;left=0;bottom=0;right=0;points=[[0,0.5],[1,0.5]];portConstraint=eastwest;" parent="L89QSRtBMgVIycEGR7nq-129" vertex="1"><mxGeometry y="90" width="180" height="30" as="geometry"/></mxCell><mxCell id="L89QSRtBMgVIycEGR7nq-137" value="" style="shape=partialRectangle;connectable=0;fillColor=none;top=0;left=0;bottom=0;right=0;editable=1;overflow=hidden;" parent="L89QSRtBMgVIycEGR7nq-136" vertex="1"><mxGeometry width="30" height="30" as="geometry"><mxRectangle width="30" height="30" as="alternateBounds"/></mxGeometry></mxCell><mxCell id="L89QSRtBMgVIycEGR7nq-138" value="reservation_number_day" style="shape=partialRectangle;connectable=0;fillColor=none;top=0;left=0;bottom=0;right=0;align=left;spacingLeft=6;overflow=hidden;" parent="L89QSRtBMgVIycEGR7nq-136" vertex="1"><mxGeometry x="30" width="150" height="30" as="geometry"><mxRectangle width="150" height="30" as="alternateBounds"/></mxGeometry></mxCell><mxCell id="L89QSRtBMgVIycEGR7nq-139" value="" style="edgeStyle=entityRelationEdgeStyle;fontSize=12;html=1;endArrow=ERmandOne;startArrow=ERmandOne;rounded=0;entryX=0;entryY=0.5;entryDx=0;entryDy=0;" parent="L89QSRtBMgVIycEGR7nq-1" target="L89QSRtBMgVIycEGR7nq-68" edge="1"><mxGeometry width="100" height="100" relative="1" as="geometry"><mxPoint x="-70" y="456" as="sourcePoint"/><mxPoint x="20" y="400" as="targetPoint"/></mxGeometry></mxCell><mxCell id="L89QSRtBMgVIycEGR7nq-140" value="" style="edgeStyle=orthogonalEdgeStyle;fontSize=12;html=1;endArrow=ERzeroToMany;startArrow=ERmandOne;rounded=0;entryX=1;entryY=0.5;entryDx=0;entryDy=0;exitX=0;exitY=0.5;exitDx=0;exitDy=0;" parent="L89QSRtBMgVIycEGR7nq-1" source="L89QSRtBMgVIycEGR7nq-160" target="L89QSRtBMgVIycEGR7nq-10" edge="1"><mxGeometry width="100" height="100" relative="1" as="geometry"><mxPoint x="290" y="1025" as="sourcePoint"/><mxPoint x="390" y="-15" as="targetPoint"/><Array as="points"><mxPoint x="440" y="395"/><mxPoint x="440" y="-35"/></Array></mxGeometry></mxCell><mxCell id="L89QSRtBMgVIycEGR7nq-141" value="order_history" style="shape=table;startSize=30;container=1;collapsible=1;childLayout=tableLayout;fixedRows=1;rowLines=0;fontStyle=1;align=center;resizeLast=1;fillColor=#ffe6cc;strokeColor=#d79b00;" parent="L89QSRtBMgVIycEGR7nq-1" vertex="1"><mxGeometry x="470" y="530" width="180" height="180.0000000000009" as="geometry"/></mxCell><mxCell id="L89QSRtBMgVIycEGR7nq-142" value="" style="shape=partialRectangle;collapsible=0;dropTarget=0;pointerEvents=0;fillColor=none;top=0;left=0;bottom=1;right=0;points=[[0,0.5],[1,0.5]];portConstraint=eastwest;" parent="L89QSRtBMgVIycEGR7nq-141" vertex="1"><mxGeometry y="30" width="180" height="50" as="geometry"/></mxCell><mxCell id="L89QSRtBMgVIycEGR7nq-143" value="PK,&#10;FK" style="shape=partialRectangle;connectable=0;fillColor=none;top=0;left=0;bottom=0;right=0;fontStyle=1;overflow=hidden;" parent="L89QSRtBMgVIycEGR7nq-142" vertex="1"><mxGeometry width="30" height="50" as="geometry"><mxRectangle width="30" height="50" as="alternateBounds"/></mxGeometry></mxCell><mxCell id="L89QSRtBMgVIycEGR7nq-144" value="order_id" style="shape=partialRectangle;connectable=0;fillColor=none;top=0;left=0;bottom=0;right=0;align=left;spacingLeft=6;fontStyle=5;overflow=hidden;" parent="L89QSRtBMgVIycEGR7nq-142" vertex="1"><mxGeometry x="30" width="150" height="50" as="geometry"><mxRectangle width="150" height="50" as="alternateBounds"/></mxGeometry></mxCell><mxCell id="L89QSRtBMgVIycEGR7nq-145" value="" style="shape=partialRectangle;collapsible=0;dropTarget=0;pointerEvents=0;fillColor=none;top=0;left=0;bottom=1;right=0;points=[[0,0.5],[1,0.5]];portConstraint=eastwest;" parent="L89QSRtBMgVIycEGR7nq-141" vertex="1"><mxGeometry y="80" width="180" height="40" as="geometry"/></mxCell><mxCell id="L89QSRtBMgVIycEGR7nq-146" value="FK" style="shape=partialRectangle;connectable=0;fillColor=none;top=0;left=0;bottom=0;right=0;fontStyle=0;overflow=hidden;" parent="L89QSRtBMgVIycEGR7nq-145" vertex="1"><mxGeometry width="30" height="40" as="geometry"><mxRectangle width="30" height="40" as="alternateBounds"/></mxGeometry></mxCell><mxCell id="L89QSRtBMgVIycEGR7nq-147" value="user_id" style="shape=partialRectangle;connectable=0;fillColor=none;top=0;left=0;bottom=0;right=0;align=left;spacingLeft=6;fontStyle=0;overflow=hidden;" parent="L89QSRtBMgVIycEGR7nq-145" vertex="1"><mxGeometry x="30" width="150" height="40" as="geometry"><mxRectangle width="150" height="40" as="alternateBounds"/></mxGeometry></mxCell><mxCell id="L89QSRtBMgVIycEGR7nq-148" value="" style="shape=partialRectangle;collapsible=0;dropTarget=0;pointerEvents=0;fillColor=none;top=0;left=0;bottom=0;right=0;points=[[0,0.5],[1,0.5]];portConstraint=eastwest;" parent="L89QSRtBMgVIycEGR7nq-141" vertex="1"><mxGeometry y="120" width="180" height="30" as="geometry"/></mxCell><mxCell id="L89QSRtBMgVIycEGR7nq-149" value="" style="shape=partialRectangle;connectable=0;fillColor=none;top=0;left=0;bottom=0;right=0;editable=1;overflow=hidden;" parent="L89QSRtBMgVIycEGR7nq-148" vertex="1"><mxGeometry width="30" height="30" as="geometry"><mxRectangle width="30" height="30" as="alternateBounds"/></mxGeometry></mxCell><mxCell id="L89QSRtBMgVIycEGR7nq-150" value="order_date" style="shape=partialRectangle;connectable=0;fillColor=none;top=0;left=0;bottom=0;right=0;align=left;spacingLeft=6;overflow=hidden;" parent="L89QSRtBMgVIycEGR7nq-148" vertex="1"><mxGeometry x="30" width="150" height="30" as="geometry"><mxRectangle width="150" height="30" as="alternateBounds"/></mxGeometry></mxCell><mxCell id="L89QSRtBMgVIycEGR7nq-151" value="" style="shape=partialRectangle;collapsible=0;dropTarget=0;pointerEvents=0;fillColor=none;top=0;left=0;bottom=0;right=0;points=[[0,0.5],[1,0.5]];portConstraint=eastwest;" parent="L89QSRtBMgVIycEGR7nq-141" vertex="1"><mxGeometry y="150" width="180" height="30" as="geometry"/></mxCell><mxCell id="L89QSRtBMgVIycEGR7nq-152" value="" style="shape=partialRectangle;connectable=0;fillColor=none;top=0;left=0;bottom=0;right=0;editable=1;overflow=hidden;" parent="L89QSRtBMgVIycEGR7nq-151" vertex="1"><mxGeometry width="30" height="30" as="geometry"><mxRectangle width="30" height="30" as="alternateBounds"/></mxGeometry></mxCell><mxCell id="L89QSRtBMgVIycEGR7nq-153" value="reservation_number_day" style="shape=partialRectangle;connectable=0;fillColor=none;top=0;left=0;bottom=0;right=0;align=left;spacingLeft=6;overflow=hidden;" parent="L89QSRtBMgVIycEGR7nq-151" vertex="1"><mxGeometry x="30" width="150" height="30" as="geometry"><mxRectangle width="150" height="30" as="alternateBounds"/></mxGeometry></mxCell><mxCell id="L89QSRtBMgVIycEGR7nq-154" value="" style="edgeStyle=entityRelationEdgeStyle;fontSize=12;html=1;endArrow=ERoneToMany;startArrow=ERmandOne;rounded=0;exitX=1;exitY=0.5;exitDx=0;exitDy=0;entryX=0;entryY=0.5;entryDx=0;entryDy=0;" parent="L89QSRtBMgVIycEGR7nq-1" source="L89QSRtBMgVIycEGR7nq-68" target="L89QSRtBMgVIycEGR7nq-145" edge="1"><mxGeometry width="100" height="100" relative="1" as="geometry"><mxPoint x="340" y="670" as="sourcePoint"/><mxPoint x="440" y="570" as="targetPoint"/></mxGeometry></mxCell><mxCell id="L89QSRtBMgVIycEGR7nq-155" value="" style="edgeStyle=entityRelationEdgeStyle;fontSize=12;html=1;endArrow=ERoneToMany;startArrow=ERmandOne;rounded=0;entryX=0;entryY=0.5;entryDx=0;entryDy=0;" parent="L89QSRtBMgVIycEGR7nq-1" source="L89QSRtBMgVIycEGR7nq-122" target="L89QSRtBMgVIycEGR7nq-115" edge="1"><mxGeometry width="100" height="100" relative="1" as="geometry"><mxPoint x="970" y="660" as="sourcePoint"/><mxPoint x="1070" y="560" as="targetPoint"/></mxGeometry></mxCell><mxCell id="L89QSRtBMgVIycEGR7nq-156" value="orderhistory_equipment_link" style="shape=table;startSize=30;container=1;collapsible=1;childLayout=tableLayout;fixedRows=1;rowLines=0;fontStyle=1;align=center;resizeLast=1;fillColor=#ffe6cc;strokeColor=#d79b00;" parent="L89QSRtBMgVIycEGR7nq-1" vertex="1"><mxGeometry x="480" y="320" width="180" height="90" as="geometry"/></mxCell><mxCell id="L89QSRtBMgVIycEGR7nq-157" value="" style="shape=partialRectangle;collapsible=0;dropTarget=0;pointerEvents=0;fillColor=none;top=0;left=0;bottom=1;right=0;points=[[0,0.5],[1,0.5]];portConstraint=eastwest;" parent="L89QSRtBMgVIycEGR7nq-156" vertex="1"><mxGeometry y="30" width="180" height="30" as="geometry"/></mxCell><mxCell id="L89QSRtBMgVIycEGR7nq-158" value="PK" style="shape=partialRectangle;connectable=0;fillColor=none;top=0;left=0;bottom=0;right=0;fontStyle=1;overflow=hidden;" parent="L89QSRtBMgVIycEGR7nq-157" vertex="1"><mxGeometry width="30" height="30" as="geometry"><mxRectangle width="30" height="30" as="alternateBounds"/></mxGeometry></mxCell><mxCell id="L89QSRtBMgVIycEGR7nq-159" value="order_id" style="shape=partialRectangle;connectable=0;fillColor=none;top=0;left=0;bottom=0;right=0;align=left;spacingLeft=6;fontStyle=5;overflow=hidden;" parent="L89QSRtBMgVIycEGR7nq-157" vertex="1"><mxGeometry x="30" width="150" height="30" as="geometry"><mxRectangle width="150" height="30" as="alternateBounds"/></mxGeometry></mxCell><mxCell id="L89QSRtBMgVIycEGR7nq-160" value="" style="shape=partialRectangle;collapsible=0;dropTarget=0;pointerEvents=0;fillColor=none;top=0;left=0;bottom=1;right=0;points=[[0,0.5],[1,0.5]];portConstraint=eastwest;" parent="L89QSRtBMgVIycEGR7nq-156" vertex="1"><mxGeometry y="60" width="180" height="30" as="geometry"/></mxCell><mxCell id="L89QSRtBMgVIycEGR7nq-161" value="PK" style="shape=partialRectangle;connectable=0;fillColor=none;top=0;left=0;bottom=0;right=0;fontStyle=1;overflow=hidden;" parent="L89QSRtBMgVIycEGR7nq-160" vertex="1"><mxGeometry width="30" height="30" as="geometry"><mxRectangle width="30" height="30" as="alternateBounds"/></mxGeometry></mxCell><mxCell id="L89QSRtBMgVIycEGR7nq-162" value="equipment_id" style="shape=partialRectangle;connectable=0;fillColor=none;top=0;left=0;bottom=0;right=0;align=left;spacingLeft=6;fontStyle=5;overflow=hidden;" parent="L89QSRtBMgVIycEGR7nq-160" vertex="1"><mxGeometry x="30" width="150" height="30" as="geometry"><mxRectangle width="150" height="30" as="alternateBounds"/></mxGeometry></mxCell><mxCell id="L89QSRtBMgVIycEGR7nq-163" value="" style="edgeStyle=orthogonalEdgeStyle;fontSize=12;html=1;endArrow=ERzeroToMany;startArrow=ERmandOne;rounded=0;exitX=1;exitY=0.5;exitDx=0;exitDy=0;entryX=1;entryY=0.5;entryDx=0;entryDy=0;" parent="L89QSRtBMgVIycEGR7nq-1" source="L89QSRtBMgVIycEGR7nq-142" target="L89QSRtBMgVIycEGR7nq-157" edge="1"><mxGeometry width="100" height="100" relative="1" as="geometry"><mxPoint x="820" y="700" as="sourcePoint"/><mxPoint x="920" y="600" as="targetPoint"/><Array as="points"><mxPoint x="690" y="585"/><mxPoint x="690" y="365"/></Array></mxGeometry></mxCell><mxCell id="L89QSRtBMgVIycEGR7nq-164" value="cart_equipment_link" style="shape=table;startSize=30;container=1;collapsible=1;childLayout=tableLayout;fixedRows=1;rowLines=0;fontStyle=1;align=center;resizeLast=1;fillColor=#ffe6cc;strokeColor=#d79b00;" parent="L89QSRtBMgVIycEGR7nq-1" vertex="1"><mxGeometry x="-90" y="150" width="180" height="90" as="geometry"/></mxCell><mxCell id="L89QSRtBMgVIycEGR7nq-165" value="" style="shape=partialRectangle;collapsible=0;dropTarget=0;pointerEvents=0;fillColor=none;top=0;left=0;bottom=1;right=0;points=[[0,0.5],[1,0.5]];portConstraint=eastwest;" parent="L89QSRtBMgVIycEGR7nq-164" vertex="1"><mxGeometry y="30" width="180" height="30" as="geometry"/></mxCell><mxCell id="L89QSRtBMgVIycEGR7nq-166" value="PK" style="shape=partialRectangle;connectable=0;fillColor=none;top=0;left=0;bottom=0;right=0;fontStyle=1;overflow=hidden;" parent="L89QSRtBMgVIycEGR7nq-165" vertex="1"><mxGeometry width="30" height="30" as="geometry"><mxRectangle width="30" height="30" as="alternateBounds"/></mxGeometry></mxCell><mxCell id="L89QSRtBMgVIycEGR7nq-167" value="cart_id" style="shape=partialRectangle;connectable=0;fillColor=none;top=0;left=0;bottom=0;right=0;align=left;spacingLeft=6;fontStyle=5;overflow=hidden;" parent="L89QSRtBMgVIycEGR7nq-165" vertex="1"><mxGeometry x="30" width="150" height="30" as="geometry"><mxRectangle width="150" height="30" as="alternateBounds"/></mxGeometry></mxCell><mxCell id="L89QSRtBMgVIycEGR7nq-168" value="" style="shape=partialRectangle;collapsible=0;dropTarget=0;pointerEvents=0;fillColor=none;top=0;left=0;bottom=1;right=0;points=[[0,0.5],[1,0.5]];portConstraint=eastwest;" parent="L89QSRtBMgVIycEGR7nq-164" vertex="1"><mxGeometry y="60" width="180" height="30" as="geometry"/></mxCell><mxCell id="L89QSRtBMgVIycEGR7nq-169" value="PK" style="shape=partialRectangle;connectable=0;fillColor=none;top=0;left=0;bottom=0;right=0;fontStyle=1;overflow=hidden;" parent="L89QSRtBMgVIycEGR7nq-168" vertex="1"><mxGeometry width="30" height="30" as="geometry"><mxRectangle width="30" height="30" as="alternateBounds"/></mxGeometry></mxCell><mxCell id="L89QSRtBMgVIycEGR7nq-170" value="equipment_id" style="shape=partialRectangle;connectable=0;fillColor=none;top=0;left=0;bottom=0;right=0;align=left;spacingLeft=6;fontStyle=5;overflow=hidden;" parent="L89QSRtBMgVIycEGR7nq-168" vertex="1"><mxGeometry x="30" width="150" height="30" as="geometry"><mxRectangle width="150" height="30" as="alternateBounds"/></mxGeometry></mxCell><mxCell id="L89QSRtBMgVIycEGR7nq-171" value="" style="edgeStyle=orthogonalEdgeStyle;fontSize=12;html=1;endArrow=ERoneToMany;startArrow=ERmandOne;rounded=0;entryX=1.014;entryY=0.333;entryDx=0;entryDy=0;exitX=1.011;exitY=0.27;exitDx=0;exitDy=0;exitPerimeter=0;entryPerimeter=0;" parent="L89QSRtBMgVIycEGR7nq-1" source="L89QSRtBMgVIycEGR7nq-130" target="L89QSRtBMgVIycEGR7nq-165" edge="1"><mxGeometry width="100" height="100" relative="1" as="geometry"><mxPoint x="-260" y="290" as="sourcePoint"/><mxPoint x="-160" y="190" as="targetPoint"/><Array as="points"><mxPoint x="110" y="438"/><mxPoint x="110" y="190"/></Array></mxGeometry></mxCell><mxCell id="L89QSRtBMgVIycEGR7nq-172" value="" style="edgeStyle=entityRelationEdgeStyle;fontSize=12;html=1;endArrow=ERoneToMany;startArrow=ERmandOne;rounded=0;entryX=1;entryY=0.5;entryDx=0;entryDy=0;exitX=0.006;exitY=0.247;exitDx=0;exitDy=0;exitPerimeter=0;" parent="L89QSRtBMgVIycEGR7nq-1" source="L89QSRtBMgVIycEGR7nq-10" target="L89QSRtBMgVIycEGR7nq-168" edge="1"><mxGeometry width="100" height="100" relative="1" as="geometry"><mxPoint x="130" y="270" as="sourcePoint"/><mxPoint x="230" y="170" as="targetPoint"/></mxGeometry></mxCell></root></mxGraphModel></diagram></mxfile>